<svg xmlns="http://www.w3.org/2000/svg" xmlns:xlink="http://www.w3.org/1999/xlink" width="1180" zoomAndPan="magnify" viewBox="0 0 884.88 809.999993" height="1080" preserveAspectRatio="xMidYMid meet" version="1.2"><defs><clipPath id="386084f13a"><path d="M 4 81.042969 L 880 81.042969 L 880 743 L 4 743 Z M 4 81.042969 "/></clipPath></defs><g id="760add2da4"><g clip-rule="nonzero" clip-path="url(#386084f13a)"><path style=" stroke:none;fill-rule:nonzero;fill:#ffffff;fill-opacity:1;" d="M 813.539062 80.972656 L 71.035156 80.972656 C 34.445312 80.972656 4.6875 110.75 4.6875 147.335938 L 4.6875 676.433594 C 4.6875 713.023438 34.445312 742.78125 71.035156 742.78125 L 813.519531 742.78125 C 850.109375 742.78125 879.871094 713.023438 879.871094 676.433594 L 879.871094 147.335938 C 879.886719 110.75 850.125 80.972656 813.539062 80.972656 Z M 858.097656 676.433594 C 858.097656 701.003906 838.105469 720.992188 813.539062 720.992188 L 71.035156 720.992188 C 46.46875 720.992188 26.476562 701.003906 26.476562 676.433594 L 26.476562 147.335938 C 26.476562 122.769531 46.46875 102.777344 71.035156 102.777344 L 813.519531 102.777344 C 838.089844 102.777344 858.078125 122.769531 858.078125 147.335938 L 858.078125 676.433594 Z M 159.300781 571.71875 L 99.378906 571.71875 C 93.367188 571.71875 88.484375 576.605469 88.484375 582.613281 L 88.484375 665.613281 C 88.484375 671.625 93.367188 676.507812 99.378906 676.507812 L 159.300781 676.507812 C 165.308594 676.507812 170.195312 671.625 170.195312 665.613281 L 170.195312 582.613281 C 170.195312 576.585938 165.308594 571.71875 159.300781 571.71875 Z M 148.40625 654.71875 L 110.273438 654.71875 L 110.273438 593.507812 L 148.40625 593.507812 Z M 267.628906 499.90625 L 207.707031 499.90625 C 201.695312 499.90625 196.8125 504.789062 196.8125 510.800781 L 196.8125 665.59375 C 196.8125 671.605469 201.695312 676.488281 207.707031 676.488281 L 267.628906 676.488281 C 273.636719 676.488281 278.523438 671.605469 278.523438 665.59375 L 278.523438 510.800781 C 278.523438 504.789062 273.65625 499.90625 267.628906 499.90625 Z M 256.734375 654.71875 L 218.601562 654.71875 L 218.601562 521.714844 L 256.734375 521.714844 Z M 375.976562 542.160156 L 316.054688 542.160156 C 310.042969 542.160156 305.160156 547.042969 305.160156 553.054688 L 305.160156 665.59375 C 305.160156 671.605469 310.042969 676.488281 316.054688 676.488281 L 375.976562 676.488281 C 381.984375 676.488281 386.871094 671.605469 386.871094 665.59375 L 386.871094 553.054688 C 386.871094 547.042969 381.984375 542.160156 375.976562 542.160156 Z M 365.082031 654.71875 L 326.949219 654.71875 L 326.949219 563.964844 L 365.082031 563.964844 Z M 484.320312 411.570312 L 424.402344 411.570312 C 418.390625 411.570312 413.507812 416.453125 413.507812 422.464844 L 413.507812 665.613281 C 413.507812 671.625 418.390625 676.507812 424.402344 676.507812 L 484.320312 676.507812 C 490.332031 676.507812 495.214844 671.625 495.214844 665.613281 L 495.214844 422.464844 C 495.214844 416.433594 490.332031 411.570312 484.320312 411.570312 Z M 473.425781 654.71875 L 435.296875 654.71875 L 435.296875 433.359375 L 473.425781 433.359375 Z M 196.105469 184.488281 C 196.105469 178.476562 200.988281 173.59375 207 173.59375 L 428.996094 173.59375 C 435.003906 173.59375 439.890625 178.476562 439.890625 184.488281 C 439.890625 190.5 435.003906 195.382812 428.996094 195.382812 L 207 195.382812 C 200.988281 195.382812 196.105469 190.5 196.105469 184.488281 Z M 196.105469 241.175781 C 196.105469 235.167969 200.988281 230.28125 207 230.28125 L 366.515625 230.28125 C 372.523438 230.28125 377.410156 235.167969 377.410156 241.175781 C 377.410156 247.1875 372.523438 252.070312 366.515625 252.070312 L 207 252.070312 C 200.988281 252.070312 196.105469 247.203125 196.105469 241.175781 Z M 125.363281 255.792969 C 149.058594 255.792969 168.324219 236.527344 168.324219 212.832031 C 168.324219 189.136719 149.058594 169.871094 125.363281 169.871094 C 101.667969 169.871094 82.402344 189.136719 82.402344 212.832031 C 82.402344 236.527344 101.667969 255.792969 125.363281 255.792969 Z M 125.363281 191.660156 C 137.039062 191.660156 146.535156 201.15625 146.535156 212.832031 C 146.535156 224.507812 137.039062 234.003906 125.363281 234.003906 C 113.6875 234.003906 104.191406 224.507812 104.191406 212.832031 C 104.191406 201.15625 113.6875 191.660156 125.363281 191.660156 Z M 196.105469 295.378906 C 196.105469 289.367188 200.988281 284.484375 207 284.484375 L 428.996094 284.484375 C 435.003906 284.484375 439.890625 289.367188 439.890625 295.378906 C 439.890625 301.386719 435.003906 306.273438 428.996094 306.273438 L 207 306.273438 C 200.988281 306.273438 196.105469 301.40625 196.105469 295.378906 Z M 196.105469 352.082031 C 196.105469 346.074219 200.988281 341.1875 207 341.1875 L 366.515625 341.1875 C 372.523438 341.1875 377.410156 346.074219 377.410156 352.082031 C 377.410156 358.09375 372.523438 362.980469 366.515625 362.980469 L 207 362.980469 C 200.988281 362.980469 196.105469 358.09375 196.105469 352.082031 Z M 125.363281 366.699219 C 149.058594 366.699219 168.324219 347.433594 168.324219 323.738281 C 168.324219 300.042969 149.058594 280.777344 125.363281 280.777344 C 101.667969 280.777344 82.402344 300.042969 82.402344 323.738281 C 82.402344 347.4375 101.667969 366.699219 125.363281 366.699219 Z M 125.363281 302.566406 C 137.039062 302.566406 146.535156 312.0625 146.535156 323.738281 C 146.535156 335.414062 137.039062 344.910156 125.363281 344.910156 C 113.6875 344.910156 104.191406 335.414062 104.191406 323.738281 C 104.191406 312.0625 113.6875 302.566406 125.363281 302.566406 Z M 645.761719 428.128906 C 714.707031 428.128906 770.777344 372.039062 770.777344 303.058594 C 770.777344 297.046875 765.894531 292.183594 759.882812 292.183594 C 759.664062 292.183594 759.449219 292.183594 759.230469 292.199219 L 656.65625 292.199219 L 656.65625 189.898438 C 656.675781 189.589844 656.691406 189.28125 656.691406 188.957031 C 656.691406 182.945312 651.808594 178.058594 645.796875 178.058594 L 645.761719 178.058594 C 576.816406 178.058594 520.746094 234.148438 520.746094 303.078125 C 520.746094 372.039062 576.816406 428.128906 645.761719 428.128906 Z M 634.867188 200.449219 L 634.867188 303.113281 C 634.867188 309.121094 639.75 314.007812 645.761719 314.007812 L 748.425781 314.007812 C 742.960938 365.828125 699 406.339844 645.761719 406.339844 C 588.835938 406.339844 542.535156 360.035156 542.535156 303.113281 C 542.535156 249.855469 583.046875 205.894531 634.867188 200.449219 Z M 687.597656 136.28125 C 687.597656 136.28125 687.5625 136.28125 687.5625 136.28125 C 681.550781 136.28125 676.667969 141.164062 676.667969 147.175781 L 676.667969 261.296875 C 676.667969 267.304688 681.550781 272.191406 687.5625 272.191406 L 801.683594 272.191406 C 804.570312 272.191406 807.347656 271.027344 809.382812 268.976562 C 811.433594 266.925781 812.578125 264.144531 812.578125 261.257812 C 812.558594 192.367188 756.488281 136.316406 687.597656 136.28125 Z M 698.457031 250.417969 L 698.457031 158.648438 C 746.683594 163.734375 785.121094 202.175781 790.222656 250.417969 Z M 801.136719 464.097656 C 801.136719 470.109375 796.253906 474.992188 790.242188 474.992188 L 565.050781 474.992188 C 559.039062 474.992188 554.15625 470.109375 554.15625 464.097656 C 554.15625 458.089844 559.039062 453.203125 565.050781 453.203125 L 790.242188 453.203125 C 796.253906 453.203125 801.136719 458.089844 801.136719 464.097656 Z M 801.136719 524.980469 C 801.136719 530.992188 796.253906 535.875 790.242188 535.875 L 565.050781 535.875 C 559.039062 535.875 554.15625 530.992188 554.15625 524.980469 C 554.15625 518.972656 559.039062 514.085938 565.050781 514.085938 L 790.242188 514.085938 C 796.253906 514.085938 801.136719 518.953125 801.136719 524.980469 Z M 801.136719 585.847656 C 801.136719 591.855469 796.253906 596.742188 790.242188 596.742188 L 565.050781 596.742188 C 559.039062 596.742188 554.15625 591.855469 554.15625 585.847656 C 554.15625 579.835938 559.039062 574.953125 565.050781 574.953125 L 790.242188 574.953125 C 796.253906 574.953125 801.136719 579.835938 801.136719 585.847656 Z M 801.136719 646.730469 C 801.136719 652.738281 796.253906 657.625 790.242188 657.625 L 565.050781 657.625 C 559.039062 657.625 554.15625 652.738281 554.15625 646.730469 C 554.15625 640.71875 559.039062 635.835938 565.050781 635.835938 L 790.242188 635.835938 C 796.253906 635.835938 801.136719 640.699219 801.136719 646.730469 Z M 801.136719 646.730469 "/></g></g></svg>