<svg xmlns="http://www.w3.org/2000/svg" xmlns:xlink="http://www.w3.org/1999/xlink" width="1080" zoomAndPan="magnify" viewBox="0 0 810 809.999993" height="1080" preserveAspectRatio="xMidYMid meet" version="1.2"><defs><clipPath id="3c22e2a84a"><path d="M 48.601562 8 L 728.851562 8 L 728.851562 804 L 48.601562 804 Z M 48.601562 8 "/></clipPath></defs><g id="a1067e8267"><g clip-rule="nonzero" clip-path="url(#3c22e2a84a)"><path style=" stroke:none;fill-rule:nonzero;fill:#515355;fill-opacity:1;" d="M 382.394531 802.3125 C 386.613281 803.347656 390.835938 803.347656 395.054688 802.3125 C 400.964844 800.84375 406.839844 799.253906 412.683594 797.539062 C 418.523438 795.824219 424.328125 793.992188 430.09375 792.039062 C 435.859375 790.082031 441.582031 788.011719 447.261719 785.816406 C 452.941406 783.625 458.574219 781.316406 464.160156 778.890625 C 469.742188 776.464844 475.273438 773.925781 480.753906 771.269531 C 486.230469 768.617188 491.652344 765.847656 497.015625 762.96875 C 502.378906 760.085938 507.683594 757.097656 512.921875 753.996094 C 518.160156 750.894531 523.335938 747.6875 528.441406 744.375 C 533.546875 741.058594 538.582031 737.636719 543.546875 734.113281 C 548.511719 730.589844 553.402344 726.964844 558.214844 723.238281 C 563.03125 719.511719 567.765625 715.683594 572.417969 711.761719 C 577.074219 707.835938 581.644531 703.820312 586.132812 699.707031 C 590.625 695.59375 595.023438 691.386719 599.339844 687.089844 C 603.652344 682.796875 607.875 678.410156 612.007812 673.941406 C 616.136719 669.46875 620.175781 664.914062 624.117188 660.273438 C 628.0625 655.636719 631.90625 650.917969 635.652344 646.117188 C 639.398438 641.320312 643.046875 636.445312 646.589844 631.496094 C 650.136719 626.546875 653.574219 621.523438 656.910156 616.429688 C 660.246094 611.339844 663.476562 606.179688 666.597656 600.953125 C 669.71875 595.726562 672.734375 590.4375 675.636719 585.082031 C 678.539062 579.730469 681.328125 574.320312 684.003906 568.855469 C 686.683594 563.386719 689.246094 557.867188 691.695312 552.292969 C 694.144531 546.71875 696.476562 541.09375 698.691406 535.425781 C 700.90625 529.753906 703.003906 524.039062 704.980469 518.28125 C 706.957031 512.523438 708.816406 506.726562 710.554688 500.890625 C 712.292969 495.058594 713.90625 489.1875 715.402344 483.285156 C 716.894531 477.382812 718.265625 471.453125 719.511719 465.496094 C 720.761719 459.535156 721.882812 453.554688 722.882812 447.546875 C 723.882812 441.542969 724.757812 435.519531 725.503906 429.476562 C 726.253906 423.433594 726.878906 417.378906 727.375 411.3125 C 727.875 405.246094 728.246094 399.167969 728.492188 393.085938 C 728.738281 387.003906 728.855469 380.917969 728.851562 374.828125 L 728.851562 165.519531 C 728.851562 164.664062 728.808594 163.808594 728.722656 162.957031 C 728.640625 162.101562 728.515625 161.257812 728.347656 160.417969 C 728.179688 159.574219 727.972656 158.746094 727.722656 157.925781 C 727.472656 157.105469 727.1875 156.300781 726.859375 155.507812 C 726.53125 154.714844 726.164062 153.941406 725.761719 153.1875 C 725.355469 152.429688 724.917969 151.699219 724.441406 150.984375 C 723.964844 150.273438 723.453125 149.585938 722.910156 148.921875 C 722.367188 148.261719 721.792969 147.625 721.1875 147.019531 C 720.582031 146.414062 719.945312 145.839844 719.285156 145.296875 C 718.621094 144.753906 717.933594 144.242188 717.222656 143.765625 C 716.507812 143.289062 715.777344 142.851562 715.019531 142.445312 C 714.265625 142.042969 713.492188 141.675781 712.699219 141.347656 C 711.90625 141.019531 711.101562 140.734375 710.28125 140.484375 C 709.460938 140.234375 708.632812 140.027344 707.789062 139.859375 C 706.949219 139.691406 706.105469 139.566406 705.25 139.484375 C 704.398438 139.398438 703.542969 139.355469 702.6875 139.355469 C 689.070312 138.796875 675.503906 137.636719 661.988281 135.878906 C 648.472656 134.117188 635.0625 131.765625 621.757812 128.816406 C 608.449219 125.871094 595.300781 122.339844 582.304688 118.230469 C 569.3125 114.117188 556.523438 109.441406 543.945312 104.195312 C 531.363281 98.953125 519.039062 93.164062 506.972656 86.832031 C 494.90625 80.496094 483.140625 73.640625 471.679688 66.265625 C 460.21875 58.890625 449.109375 51.019531 438.34375 42.660156 C 427.578125 34.300781 417.207031 25.484375 407.222656 16.207031 C 406.617188 15.601562 405.984375 15.027344 405.320312 14.480469 C 404.65625 13.9375 403.96875 13.429688 403.257812 12.953125 C 402.546875 12.476562 401.8125 12.039062 401.054688 11.632812 C 400.300781 11.230469 399.527344 10.863281 398.734375 10.535156 C 397.945312 10.207031 397.136719 9.921875 396.320312 9.671875 C 395.5 9.421875 394.667969 9.214844 393.828125 9.046875 C 392.988281 8.882812 392.140625 8.753906 391.289062 8.671875 C 390.4375 8.585938 389.582031 8.546875 388.726562 8.546875 C 387.867188 8.546875 387.011719 8.585938 386.160156 8.671875 C 385.308594 8.753906 384.460938 8.882812 383.621094 9.046875 C 382.78125 9.214844 381.953125 9.421875 381.132812 9.671875 C 380.3125 9.921875 379.507812 10.207031 378.714844 10.535156 C 377.921875 10.863281 377.148438 11.230469 376.394531 11.632812 C 375.636719 12.039062 374.902344 12.476562 374.191406 12.953125 C 373.480469 13.429688 372.792969 13.9375 372.128906 14.480469 C 371.46875 15.027344 370.832031 15.601562 370.226562 16.207031 C 249.011719 137.421875 76.4375 139.355469 74.761719 139.355469 C 73.90625 139.355469 73.050781 139.398438 72.199219 139.484375 C 71.347656 139.566406 70.5 139.691406 69.660156 139.859375 C 68.820312 140.027344 67.988281 140.234375 67.167969 140.484375 C 66.347656 140.734375 65.542969 141.019531 64.75 141.347656 C 63.960938 141.675781 63.1875 142.042969 62.429688 142.445312 C 61.675781 142.851562 60.941406 143.289062 60.226562 143.765625 C 59.515625 144.242188 58.828125 144.753906 58.164062 145.296875 C 57.503906 145.839844 56.867188 146.414062 56.261719 147.019531 C 55.65625 147.625 55.082031 148.261719 54.539062 148.921875 C 53.996094 149.585938 53.484375 150.273438 53.007812 150.984375 C 52.535156 151.699219 52.09375 152.429688 51.6875 153.1875 C 51.285156 153.941406 50.917969 154.714844 50.589844 155.507812 C 50.261719 156.300781 49.976562 157.105469 49.726562 157.925781 C 49.476562 158.746094 49.269531 159.574219 49.101562 160.417969 C 48.9375 161.257812 48.808594 162.101562 48.726562 162.957031 C 48.640625 163.808594 48.601562 164.664062 48.601562 165.519531 L 48.601562 374.828125 C 48.59375 380.917969 48.710938 387.003906 48.957031 393.085938 C 49.203125 399.167969 49.574219 405.246094 50.074219 411.3125 C 50.570312 417.378906 51.195312 423.433594 51.945312 429.476562 C 52.691406 435.519531 53.566406 441.542969 54.566406 447.546875 C 55.566406 453.554688 56.691406 459.535156 57.9375 465.496094 C 59.183594 471.453125 60.554688 477.382812 62.050781 483.285156 C 63.542969 489.1875 65.160156 495.058594 66.894531 500.890625 C 68.632812 506.726562 70.492188 512.523438 72.46875 518.28125 C 74.445312 524.039062 76.542969 529.753906 78.757812 535.425781 C 80.972656 541.09375 83.304688 546.71875 85.753906 552.292969 C 88.203125 557.867188 90.765625 563.386719 93.445312 568.855469 C 96.121094 574.320312 98.914062 579.730469 101.816406 585.082031 C 104.71875 590.4375 107.730469 595.726562 110.851562 600.953125 C 113.972656 606.179688 117.203125 611.339844 120.539062 616.429688 C 123.875 621.523438 127.316406 626.546875 130.859375 631.496094 C 134.402344 636.445312 138.050781 641.320312 141.796875 646.117188 C 145.542969 650.917969 149.386719 655.636719 153.332031 660.273438 C 157.273438 664.914062 161.3125 669.46875 165.441406 673.941406 C 169.574219 678.410156 173.796875 682.796875 178.113281 687.089844 C 182.425781 691.386719 186.828125 695.59375 191.316406 699.707031 C 195.804688 703.820312 200.375 707.835938 205.03125 711.761719 C 209.6875 715.683594 214.421875 719.511719 219.234375 723.238281 C 224.046875 726.964844 228.9375 730.589844 233.902344 734.113281 C 238.867188 737.636719 243.902344 741.058594 249.007812 744.375 C 254.113281 747.6875 259.289062 750.894531 264.527344 753.996094 C 269.765625 757.097656 275.070312 760.085938 280.433594 762.96875 C 285.796875 765.847656 291.21875 768.617188 296.695312 771.269531 C 302.175781 773.925781 307.707031 776.464844 313.289062 778.890625 C 318.875 781.316406 324.507812 783.625 330.1875 785.816406 C 335.867188 788.011719 341.589844 790.082031 347.355469 792.039062 C 353.121094 793.992188 358.925781 795.824219 364.769531 797.539062 C 370.609375 799.253906 376.484375 800.84375 382.394531 802.3125 Z M 100.925781 190.269531 C 114.082031 189.15625 127.175781 187.535156 140.203125 185.40625 C 153.234375 183.28125 166.160156 180.652344 178.988281 177.523438 C 191.8125 174.394531 204.5 170.777344 217.046875 166.667969 C 229.59375 162.558594 241.960938 157.96875 254.152344 152.902344 C 266.34375 147.835938 278.320312 142.304688 290.085938 136.308594 C 301.847656 130.316406 313.359375 123.875 324.625 116.992188 C 335.890625 110.105469 346.871094 102.796875 357.570312 95.0625 C 368.269531 87.328125 378.65625 79.191406 388.726562 70.652344 C 398.792969 79.191406 409.179688 87.328125 419.878906 95.0625 C 430.578125 102.796875 441.558594 110.105469 452.824219 116.992188 C 464.089844 123.875 475.601562 130.316406 487.367188 136.308594 C 499.128906 142.304688 511.105469 147.835938 523.296875 152.902344 C 535.488281 157.96875 547.855469 162.558594 560.402344 166.667969 C 572.949219 170.777344 585.636719 174.394531 598.460938 177.523438 C 611.289062 180.652344 624.214844 183.28125 637.246094 185.40625 C 650.277344 187.535156 663.367188 189.15625 676.523438 190.269531 L 676.523438 374.828125 C 676.527344 380.125 676.425781 385.417969 676.214844 390.710938 C 676.003906 396.003906 675.683594 401.289062 675.257812 406.570312 C 674.828125 411.847656 674.292969 417.117188 673.648438 422.375 C 673.003906 427.632812 672.253906 432.875 671.394531 438.101562 C 670.535156 443.328125 669.570312 448.535156 668.5 453.722656 C 667.425781 458.910156 666.25 464.070312 664.964844 469.210938 C 663.683594 474.351562 662.292969 479.460938 660.800781 484.542969 C 659.308594 489.625 657.710938 494.671875 656.011719 499.691406 C 654.3125 504.707031 652.511719 509.6875 650.605469 514.628906 C 648.703125 519.570312 646.699219 524.472656 644.59375 529.332031 C 642.488281 534.195312 640.285156 539.007812 637.984375 543.78125 C 635.683594 548.550781 633.285156 553.269531 630.789062 557.941406 C 628.292969 562.613281 625.703125 567.234375 623.015625 571.800781 C 620.332031 576.367188 617.554688 580.875 614.6875 585.328125 C 611.816406 589.777344 608.855469 594.171875 605.808594 598.5 C 602.757812 602.832031 599.621094 607.097656 596.394531 611.300781 C 593.171875 615.503906 589.863281 619.636719 586.46875 623.703125 C 583.074219 627.769531 579.601562 631.765625 576.042969 635.691406 C 572.484375 639.613281 568.847656 643.464844 565.132812 647.238281 C 561.417969 651.015625 557.625 654.710938 553.761719 658.332031 C 549.894531 661.953125 545.953125 665.492188 541.941406 668.949219 C 537.929688 672.40625 533.847656 675.78125 529.699219 679.074219 C 525.550781 682.363281 521.332031 685.570312 517.050781 688.6875 C 512.769531 691.804688 508.425781 694.835938 504.023438 697.777344 C 499.617188 700.714844 495.152344 703.566406 490.628906 706.324219 C 486.109375 709.078125 481.53125 711.742188 476.898438 714.3125 C 472.269531 716.882812 467.585938 719.359375 462.851562 721.734375 C 458.121094 724.113281 453.339844 726.394531 448.515625 728.578125 C 443.6875 730.757812 438.820312 732.839844 433.90625 734.824219 C 428.996094 736.804688 424.046875 738.6875 419.058594 740.46875 C 414.066406 742.246094 409.046875 743.925781 403.988281 745.5 C 398.929688 747.074219 393.84375 748.542969 388.726562 749.90625 C 383.605469 748.542969 378.519531 747.074219 373.460938 745.5 C 368.40625 743.925781 363.382812 742.246094 358.394531 740.46875 C 353.40625 738.6875 348.453125 736.804688 343.542969 734.824219 C 338.632812 732.839844 333.761719 730.757812 328.9375 728.578125 C 324.109375 726.394531 319.328125 724.113281 314.597656 721.734375 C 309.863281 719.359375 305.183594 716.882812 300.550781 714.3125 C 295.917969 711.742188 291.34375 709.078125 286.820312 706.324219 C 282.296875 703.566406 277.832031 700.714844 273.429688 697.777344 C 269.023438 694.835938 264.679688 691.804688 260.398438 688.6875 C 256.117188 685.570312 251.902344 682.363281 247.75 679.074219 C 243.601562 675.78125 239.519531 672.40625 235.507812 668.949219 C 231.496094 665.492188 227.554688 661.953125 223.691406 658.332031 C 219.824219 654.710938 216.03125 651.015625 212.316406 647.238281 C 208.601562 643.464844 204.964844 639.613281 201.40625 635.691406 C 197.851562 631.765625 194.375 627.769531 190.980469 623.703125 C 187.585938 619.636719 184.277344 615.503906 181.054688 611.300781 C 177.828125 607.097656 174.691406 602.832031 171.644531 598.5 C 168.59375 594.171875 165.632812 589.777344 162.765625 585.328125 C 159.894531 580.875 157.117188 576.367188 154.433594 571.800781 C 151.746094 567.234375 149.15625 562.613281 146.664062 557.941406 C 144.167969 553.269531 141.769531 548.550781 139.464844 543.78125 C 137.164062 539.007812 134.960938 534.195312 132.855469 529.332031 C 130.75 524.472656 128.746094 519.570312 126.84375 514.628906 C 124.9375 509.6875 123.136719 504.707031 121.4375 499.691406 C 119.738281 494.671875 118.140625 489.625 116.648438 484.542969 C 115.15625 479.460938 113.765625 474.351562 112.484375 469.210938 C 111.199219 464.070312 110.023438 458.910156 108.949219 453.722656 C 107.878906 448.535156 106.914062 443.328125 106.054688 438.101562 C 105.195312 432.875 104.445312 427.632812 103.800781 422.375 C 103.15625 417.117188 102.621094 411.847656 102.195312 406.570312 C 101.765625 401.289062 101.445312 396.003906 101.234375 390.710938 C 101.023438 385.417969 100.921875 380.125 100.925781 374.828125 Z M 100.925781 190.269531 "/></g><path style=" stroke:none;fill-rule:nonzero;fill:#515355;fill-opacity:1;" d="M 344.0625 497.980469 C 344.675781 498.574219 345.3125 499.140625 345.980469 499.675781 C 346.644531 500.207031 347.335938 500.710938 348.050781 501.175781 C 348.765625 501.644531 349.5 502.078125 350.257812 502.472656 C 351.011719 502.871094 351.785156 503.226562 352.578125 503.550781 C 353.367188 503.871094 354.171875 504.152344 354.992188 504.398438 C 355.808594 504.640625 356.636719 504.847656 357.476562 505.007812 C 358.3125 505.171875 359.15625 505.296875 360.007812 505.378906 C 360.855469 505.460938 361.707031 505.503906 362.5625 505.503906 C 363.414062 505.503906 364.265625 505.460938 365.117188 505.378906 C 365.964844 505.296875 366.808594 505.171875 367.648438 505.007812 C 368.484375 504.847656 369.3125 504.640625 370.132812 504.398438 C 370.949219 504.152344 371.753906 503.871094 372.546875 503.550781 C 373.335938 503.226562 374.109375 502.871094 374.867188 502.472656 C 375.621094 502.078125 376.359375 501.644531 377.074219 501.175781 C 377.785156 500.710938 378.476562 500.207031 379.144531 499.675781 C 379.808594 499.140625 380.449219 498.574219 381.058594 497.980469 L 538.039062 341 C 538.628906 340.390625 539.1875 339.753906 539.714844 339.089844 C 540.238281 338.425781 540.734375 337.738281 541.191406 337.027344 C 541.652344 336.316406 542.078125 335.582031 542.464844 334.828125 C 542.855469 334.078125 543.207031 333.304688 543.519531 332.519531 C 543.835938 331.730469 544.109375 330.933594 544.347656 330.117188 C 544.582031 329.304688 544.777344 328.480469 544.933594 327.648438 C 545.089844 326.816406 545.207031 325.976562 545.28125 325.132812 C 545.355469 324.289062 545.390625 323.441406 545.382812 322.59375 C 545.375 321.75 545.328125 320.902344 545.238281 320.0625 C 545.148438 319.21875 545.019531 318.382812 544.847656 317.550781 C 544.675781 316.722656 544.464844 315.902344 544.214844 315.09375 C 543.964844 314.28125 543.675781 313.488281 543.347656 312.707031 C 543.019531 311.925781 542.65625 311.160156 542.253906 310.414062 C 541.851562 309.667969 541.414062 308.945312 540.941406 308.242188 C 540.46875 307.535156 539.964844 306.859375 539.425781 306.203125 C 538.890625 305.550781 538.320312 304.921875 537.722656 304.324219 C 537.121094 303.722656 536.496094 303.15625 535.839844 302.617188 C 535.1875 302.078125 534.507812 301.574219 533.804688 301.101562 C 533.101562 300.628906 532.375 300.191406 531.628906 299.789062 C 530.882812 299.386719 530.121094 299.023438 529.335938 298.695312 C 528.554688 298.367188 527.761719 298.078125 526.953125 297.828125 C 526.140625 297.578125 525.320312 297.367188 524.492188 297.195312 C 523.660156 297.027344 522.824219 296.894531 521.984375 296.804688 C 521.140625 296.714844 520.296875 296.667969 519.449219 296.660156 C 518.601562 296.652344 517.753906 296.6875 516.910156 296.761719 C 516.066406 296.835938 515.226562 296.953125 514.394531 297.109375 C 513.5625 297.265625 512.738281 297.460938 511.925781 297.699219 C 511.113281 297.933594 510.3125 298.207031 509.523438 298.523438 C 508.738281 298.835938 507.96875 299.1875 507.214844 299.578125 C 506.460938 299.964844 505.730469 300.390625 505.019531 300.851562 C 504.304688 301.308594 503.617188 301.804688 502.953125 302.332031 C 502.289062 302.859375 501.652344 303.414062 501.042969 304.003906 L 362.5625 442.488281 L 302.570312 382.496094 C 301.960938 381.90625 301.324219 381.347656 300.660156 380.820312 C 299.996094 380.292969 299.308594 379.800781 298.597656 379.339844 C 297.882812 378.878906 297.152344 378.457031 296.398438 378.066406 C 295.644531 377.679688 294.875 377.328125 294.089844 377.011719 C 293.300781 376.699219 292.5 376.421875 291.6875 376.1875 C 290.875 375.949219 290.050781 375.753906 289.21875 375.597656 C 288.386719 375.441406 287.546875 375.328125 286.703125 375.25 C 285.859375 375.175781 285.011719 375.144531 284.164062 375.152344 C 283.316406 375.15625 282.472656 375.207031 281.628906 375.296875 C 280.789062 375.386719 279.949219 375.515625 279.121094 375.6875 C 278.292969 375.855469 277.472656 376.066406 276.660156 376.316406 C 275.851562 376.566406 275.054688 376.855469 274.273438 377.183594 C 273.492188 377.511719 272.730469 377.878906 271.984375 378.277344 C 271.238281 378.679688 270.511719 379.117188 269.808594 379.589844 C 269.105469 380.0625 268.425781 380.566406 267.773438 381.105469 C 267.117188 381.644531 266.492188 382.214844 265.890625 382.8125 C 265.292969 383.410156 264.722656 384.039062 264.1875 384.691406 C 263.648438 385.347656 263.140625 386.027344 262.667969 386.730469 C 262.199219 387.433594 261.761719 388.160156 261.359375 388.90625 C 260.957031 389.652344 260.589844 390.414062 260.265625 391.195312 C 259.9375 391.976562 259.648438 392.773438 259.398438 393.582031 C 259.148438 394.390625 258.9375 395.210938 258.765625 396.042969 C 258.59375 396.871094 258.464844 397.707031 258.375 398.550781 C 258.285156 399.394531 258.238281 400.238281 258.230469 401.085938 C 258.222656 401.933594 258.257812 402.777344 258.332031 403.621094 C 258.40625 404.46875 258.519531 405.304688 258.675781 406.136719 C 258.832031 406.972656 259.03125 407.792969 259.265625 408.609375 C 259.503906 409.421875 259.777344 410.222656 260.09375 411.007812 C 260.40625 411.796875 260.757812 412.566406 261.148438 413.320312 C 261.535156 414.074219 261.960938 414.804688 262.417969 415.515625 C 262.878906 416.226562 263.375 416.914062 263.898438 417.578125 C 264.425781 418.242188 264.984375 418.878906 265.574219 419.488281 Z M 344.0625 497.980469 "/></g></svg>