<svg xmlns="http://www.w3.org/2000/svg" xmlns:xlink="http://www.w3.org/1999/xlink" width="1080" zoomAndPan="magnify" viewBox="0 0 810 809.999993" height="1080" preserveAspectRatio="xMidYMid meet" version="1.2"><defs><clipPath id="9ade91eb28"><path d="M 116.277344 22.355469 L 693.777344 22.355469 L 693.777344 787.355469 L 116.277344 787.355469 Z M 116.277344 22.355469 "/></clipPath></defs><g id="74f4a934de"><g clip-rule="nonzero" clip-path="url(#9ade91eb28)"><path style=" stroke:none;fill-rule:nonzero;fill:#adadad;fill-opacity:1;" d="M 604.578125 319.65625 L 599.265625 319.65625 L 599.265625 216.6875 C 599.265625 109.542969 512.078125 22.355469 404.890625 22.355469 C 297.703125 22.355469 210.515625 109.542969 210.515625 216.710938 L 210.515625 319.679688 L 205.207031 319.679688 C 156.222656 319.679688 116.355469 359.523438 116.355469 408.527344 L 116.355469 698.527344 C 116.355469 747.53125 156.222656 787.378906 205.207031 787.378906 L 604.558594 787.378906 C 653.539062 787.378906 693.40625 747.53125 693.40625 698.527344 L 693.40625 408.503906 C 693.429688 359.503906 653.5625 319.65625 604.578125 319.65625 Z M 227.675781 216.710938 C 227.675781 118.984375 307.167969 39.492188 404.890625 39.492188 C 502.617188 39.492188 582.109375 118.984375 582.109375 216.710938 L 582.109375 319.679688 L 516.691406 319.679688 L 516.691406 217.628906 C 516.691406 155.988281 466.527344 105.828125 404.890625 105.828125 C 343.253906 105.828125 293.09375 155.988281 293.09375 217.628906 L 293.09375 319.679688 L 227.675781 319.679688 Z M 499.554688 319.65625 L 310.230469 319.65625 L 310.230469 217.605469 C 310.230469 165.410156 352.695312 122.921875 404.890625 122.921875 C 457.085938 122.921875 499.554688 165.390625 499.554688 217.605469 Z M 676.25 698.507812 C 676.25 738.023438 644.097656 770.21875 604.558594 770.21875 L 205.207031 770.21875 C 165.6875 770.21875 133.515625 738.023438 133.515625 698.507812 L 133.515625 408.503906 C 133.515625 368.988281 165.664062 336.792969 205.207031 336.792969 L 604.558594 336.792969 C 644.074219 336.792969 676.25 368.988281 676.25 408.503906 Z M 676.25 698.507812 "/></g><path style=" stroke:none;fill-rule:nonzero;fill:#adadad;fill-opacity:1;" d="M 455.753906 574.117188 C 455.753906 574.09375 455.753906 574.09375 455.753906 574.09375 C 471.226562 556.652344 476.605469 532.5 470.113281 509.464844 C 463.449219 485.769531 445 468.371094 420.804688 462.886719 C 400.082031 458.1875 378.839844 462.90625 362.554688 475.847656 C 346.269531 488.832031 336.9375 508.21875 336.9375 529.027344 C 336.9375 549.113281 345.746094 568.085938 361.113281 581.066406 C 364.257812 583.710938 365.375 587.539062 363.996094 590.792969 L 346.839844 631.359375 C 343.933594 638.222656 344.652344 646.050781 348.761719 652.277344 C 352.894531 658.484375 359.800781 662.203125 367.277344 662.203125 L 442.53125 662.203125 C 450.003906 662.203125 456.910156 658.507812 461.019531 652.277344 C 465.152344 646.027344 465.875 638.222656 462.964844 631.316406 L 446.003906 591.253906 C 444.476562 587.710938 445.65625 583.558594 448.957031 580.785156 C 451.359375 578.707031 453.632812 576.476562 455.753906 574.117188 Z M 430.203125 597.964844 L 447.183594 637.984375 C 448.125 640.277344 447.183594 642.09375 446.75 642.792969 C 446.289062 643.449219 444.976562 645.042969 442.53125 645.042969 L 367.277344 645.042969 C 364.828125 645.042969 363.515625 643.449219 363.058594 642.792969 C 362.621094 642.09375 361.679688 640.277344 362.640625 638.027344 L 379.777344 597.503906 C 384.105469 587.320312 381.046875 575.449219 372.195312 567.953125 C 360.695312 558.226562 354.097656 544.042969 354.097656 529.027344 C 354.097656 513.464844 361.070312 498.972656 373.265625 489.269531 C 382.335938 482.011719 393.484375 478.230469 405.023438 478.230469 C 409 478.230469 413 478.667969 417 479.605469 C 434.988281 483.695312 448.695312 496.589844 453.632812 514.121094 C 458.59375 531.757812 454.703125 549.484375 442.945312 562.75 C 441.371094 564.5 439.6875 566.160156 437.875 567.714844 C 428.871094 575.339844 425.789062 587.515625 430.203125 597.964844 Z M 430.203125 597.964844 "/></g></svg>