<svg xmlns="http://www.w3.org/2000/svg" xmlns:xlink="http://www.w3.org/1999/xlink" width="1080" zoomAndPan="magnify" viewBox="0 0 810 809.999993" height="1080" preserveAspectRatio="xMidYMid meet" version="1.2"><defs><clipPath id="a4cea79ae9"><path d="M 10.363281 0 L 532 0 L 532 796.5 L 10.363281 796.5 Z M 10.363281 0 "/></clipPath></defs><g id="59e9bf71c0"><path style=" stroke:none;fill-rule:nonzero;fill:#515355;fill-opacity:1;" d="M 793.867188 369.152344 L 638.679688 213.96875 C 637.726562 213.015625 636.730469 212.113281 635.6875 211.257812 C 634.648438 210.402344 633.566406 209.601562 632.445312 208.851562 C 631.324219 208.101562 630.171875 207.410156 628.980469 206.773438 C 627.792969 206.140625 626.574219 205.5625 625.332031 205.046875 C 624.085938 204.53125 622.816406 204.078125 621.527344 203.6875 C 620.238281 203.296875 618.933594 202.96875 617.609375 202.707031 C 616.289062 202.445312 614.957031 202.246094 613.617188 202.113281 C 612.273438 201.980469 610.929688 201.914062 609.582031 201.914062 C 608.234375 201.914062 606.890625 201.980469 605.550781 202.113281 C 604.207031 202.246094 602.875 202.445312 601.554688 202.707031 C 600.234375 202.96875 598.925781 203.296875 597.636719 203.6875 C 596.347656 204.078125 595.082031 204.53125 593.835938 205.046875 C 592.589844 205.5625 591.375 206.140625 590.183594 206.773438 C 588.996094 207.410156 587.839844 208.101562 586.722656 208.851562 C 585.601562 209.601562 584.519531 210.402344 583.476562 211.257812 C 582.4375 212.113281 581.4375 213.015625 580.484375 213.96875 C 579.53125 214.921875 578.628906 215.917969 577.773438 216.960938 C 576.917969 218.003906 576.117188 219.085938 575.367188 220.203125 C 574.617188 221.324219 573.925781 222.480469 573.292969 223.667969 C 572.65625 224.855469 572.082031 226.074219 571.566406 227.320312 C 571.050781 228.5625 570.597656 229.832031 570.203125 231.121094 C 569.8125 232.410156 569.488281 233.714844 569.222656 235.039062 C 568.960938 236.359375 568.761719 237.691406 568.632812 239.03125 C 568.5 240.375 568.433594 241.71875 568.433594 243.066406 C 568.433594 244.414062 568.5 245.757812 568.632812 247.097656 C 568.761719 248.441406 568.960938 249.773438 569.222656 251.09375 C 569.488281 252.414062 569.8125 253.722656 570.203125 255.011719 C 570.597656 256.300781 571.050781 257.566406 571.566406 258.8125 C 572.082031 260.058594 572.65625 261.273438 573.292969 262.464844 C 573.925781 263.652344 574.617188 264.808594 575.367188 265.925781 C 576.117188 267.046875 576.917969 268.128906 577.773438 269.171875 C 578.628906 270.210938 579.53125 271.210938 580.484375 272.164062 L 665.425781 357.101562 L 216.109375 357.101562 C 214.761719 357.101562 213.417969 357.167969 212.074219 357.296875 C 210.734375 357.429688 209.402344 357.628906 208.082031 357.890625 C 206.757812 358.152344 205.453125 358.480469 204.164062 358.871094 C 202.875 359.261719 201.605469 359.71875 200.363281 360.234375 C 199.117188 360.75 197.898438 361.324219 196.710938 361.960938 C 195.523438 362.59375 194.367188 363.285156 193.246094 364.035156 C 192.125 364.785156 191.046875 365.585938 190.003906 366.441406 C 188.960938 367.296875 187.964844 368.199219 187.011719 369.152344 C 186.058594 370.105469 185.15625 371.101562 184.300781 372.144531 C 183.445312 373.1875 182.644531 374.269531 181.894531 375.386719 C 181.144531 376.507812 180.453125 377.664062 179.816406 378.851562 C 179.183594 380.039062 178.605469 381.257812 178.089844 382.503906 C 177.574219 383.746094 177.121094 385.015625 176.730469 386.304688 C 176.339844 387.59375 176.011719 388.898438 175.75 390.222656 C 175.488281 391.542969 175.289062 392.875 175.15625 394.214844 C 175.023438 395.558594 174.960938 396.902344 174.960938 398.25 C 174.960938 399.597656 175.023438 400.941406 175.15625 402.285156 C 175.289062 403.625 175.488281 404.957031 175.75 406.277344 C 176.011719 407.601562 176.339844 408.90625 176.730469 410.195312 C 177.121094 411.484375 177.574219 412.753906 178.089844 413.996094 C 178.605469 415.242188 179.183594 416.460938 179.816406 417.648438 C 180.453125 418.835938 181.144531 419.992188 181.894531 421.113281 C 182.644531 422.230469 183.445312 423.3125 184.300781 424.355469 C 185.15625 425.398438 186.058594 426.394531 187.011719 427.347656 C 187.964844 428.300781 188.960938 429.203125 190.003906 430.058594 C 191.046875 430.914062 192.125 431.714844 193.246094 432.464844 C 194.367188 433.214844 195.523438 433.90625 196.710938 434.539062 C 197.898438 435.175781 199.117188 435.75 200.363281 436.265625 C 201.605469 436.78125 202.875 437.234375 204.164062 437.628906 C 205.453125 438.019531 206.757812 438.347656 208.082031 438.609375 C 209.402344 438.871094 210.734375 439.070312 212.074219 439.203125 C 213.417969 439.332031 214.761719 439.398438 216.109375 439.398438 L 665.425781 439.398438 L 580.484375 524.335938 C 579.53125 525.289062 578.628906 526.289062 577.773438 527.328125 C 576.917969 528.371094 576.117188 529.453125 575.367188 530.574219 C 574.617188 531.695312 573.925781 532.847656 573.292969 534.035156 C 572.65625 535.226562 572.082031 536.441406 571.566406 537.6875 C 571.050781 538.933594 570.597656 540.199219 570.203125 541.488281 C 569.8125 542.777344 569.488281 544.085938 569.222656 545.40625 C 568.960938 546.730469 568.761719 548.058594 568.632812 549.402344 C 568.5 550.742188 568.433594 552.085938 568.433594 553.433594 C 568.433594 554.78125 568.5 556.125 568.632812 557.46875 C 568.761719 558.808594 568.960938 560.140625 569.222656 561.460938 C 569.488281 562.785156 569.8125 564.089844 570.207031 565.378906 C 570.597656 566.667969 571.050781 567.9375 571.566406 569.183594 C 572.082031 570.425781 572.65625 571.644531 573.292969 572.832031 C 573.925781 574.019531 574.621094 575.175781 575.367188 576.296875 C 576.117188 577.417969 576.917969 578.496094 577.773438 579.539062 C 578.628906 580.582031 579.53125 581.578125 580.484375 582.53125 C 581.4375 583.484375 582.4375 584.390625 583.476562 585.242188 C 584.519531 586.097656 585.601562 586.902344 586.722656 587.648438 C 587.84375 588.398438 588.996094 589.089844 590.1875 589.726562 C 591.375 590.359375 592.589844 590.9375 593.835938 591.453125 C 595.082031 591.96875 596.347656 592.421875 597.636719 592.8125 C 598.929688 593.203125 600.234375 593.53125 601.554688 593.792969 C 602.878906 594.054688 604.210938 594.253906 605.550781 594.386719 C 606.890625 594.519531 608.234375 594.582031 609.582031 594.582031 C 610.929688 594.582031 612.277344 594.519531 613.617188 594.386719 C 614.957031 594.253906 616.289062 594.054688 617.613281 593.792969 C 618.933594 593.53125 620.238281 593.203125 621.527344 592.8125 C 622.820312 592.421875 624.085938 591.96875 625.332031 591.453125 C 626.574219 590.933594 627.792969 590.359375 628.980469 589.726562 C 630.171875 589.089844 631.324219 588.398438 632.445312 587.648438 C 633.566406 586.898438 634.648438 586.097656 635.6875 585.242188 C 636.730469 584.386719 637.726562 583.484375 638.679688 582.53125 L 793.867188 427.347656 C 794.820312 426.394531 795.722656 425.394531 796.578125 424.355469 C 797.433594 423.3125 798.234375 422.230469 798.984375 421.109375 C 799.730469 419.988281 800.425781 418.835938 801.058594 417.648438 C 801.695312 416.457031 802.269531 415.242188 802.785156 413.996094 C 803.300781 412.75 803.753906 411.484375 804.144531 410.195312 C 804.539062 408.90625 804.863281 407.597656 805.128906 406.277344 C 805.390625 404.957031 805.585938 403.625 805.71875 402.28125 C 805.851562 400.941406 805.917969 399.597656 805.917969 398.25 C 805.917969 396.902344 805.851562 395.558594 805.71875 394.214844 C 805.585938 392.875 805.390625 391.542969 805.128906 390.222656 C 804.863281 388.898438 804.539062 387.59375 804.144531 386.304688 C 803.753906 385.015625 803.300781 383.746094 802.785156 382.503906 C 802.269531 381.257812 801.695312 380.039062 801.058594 378.851562 C 800.421875 377.664062 799.730469 376.507812 798.984375 375.386719 C 798.234375 374.265625 797.433594 373.1875 796.578125 372.144531 C 795.722656 371.101562 794.820312 370.105469 793.867188 369.152344 Z M 793.867188 369.152344 "/><g clip-rule="nonzero" clip-path="url(#a4cea79ae9)"><path style=" stroke:none;fill-rule:nonzero;fill:#515355;fill-opacity:1;" d="M 490.4375 631.429688 C 489.089844 631.429688 487.746094 631.496094 486.40625 631.628906 C 485.0625 631.761719 483.730469 631.957031 482.410156 632.222656 C 481.089844 632.484375 479.78125 632.8125 478.492188 633.203125 C 477.203125 633.59375 475.9375 634.046875 474.691406 634.5625 C 473.445312 635.078125 472.230469 635.652344 471.039062 636.289062 C 469.851562 636.925781 468.699219 637.617188 467.578125 638.363281 C 466.457031 639.113281 465.375 639.914062 464.332031 640.769531 C 463.292969 641.625 462.292969 642.53125 461.339844 643.484375 C 460.386719 644.4375 459.484375 645.433594 458.628906 646.476562 C 457.773438 647.515625 456.972656 648.597656 456.222656 649.71875 C 455.476562 650.839844 454.78125 651.992188 454.148438 653.183594 C 453.511719 654.371094 452.9375 655.585938 452.421875 656.832031 C 451.90625 658.078125 451.453125 659.34375 451.0625 660.632812 C 450.667969 661.925781 450.34375 663.230469 450.078125 664.550781 C 449.816406 665.875 449.621094 667.207031 449.488281 668.546875 C 449.355469 669.886719 449.289062 671.230469 449.289062 672.578125 L 449.289062 713.730469 L 92.660156 713.730469 L 92.660156 82.769531 L 449.289062 82.769531 L 449.289062 123.921875 C 449.289062 125.269531 449.355469 126.613281 449.488281 127.953125 C 449.617188 129.292969 449.816406 130.625 450.078125 131.949219 C 450.34375 133.269531 450.667969 134.574219 451.0625 135.867188 C 451.453125 137.15625 451.90625 138.421875 452.421875 139.667969 C 452.9375 140.914062 453.511719 142.128906 454.148438 143.316406 C 454.78125 144.507812 455.476562 145.660156 456.222656 146.78125 C 456.972656 147.902344 457.773438 148.984375 458.628906 150.023438 C 459.484375 151.066406 460.386719 152.0625 461.339844 153.015625 C 462.292969 153.96875 463.292969 154.875 464.332031 155.730469 C 465.375 156.585938 466.457031 157.386719 467.578125 158.136719 C 468.699219 158.882812 469.851562 159.574219 471.039062 160.210938 C 472.230469 160.847656 473.445312 161.421875 474.691406 161.9375 C 475.9375 162.453125 477.203125 162.90625 478.492188 163.296875 C 479.78125 163.6875 481.089844 164.015625 482.410156 164.277344 C 483.730469 164.542969 485.0625 164.738281 486.40625 164.871094 C 487.746094 165.003906 489.089844 165.070312 490.4375 165.070312 C 491.785156 165.070312 493.128906 165.003906 494.472656 164.871094 C 495.8125 164.738281 497.144531 164.542969 498.464844 164.277344 C 499.789062 164.015625 501.09375 163.6875 502.382812 163.296875 C 503.671875 162.90625 504.941406 162.453125 506.183594 161.9375 C 507.429688 161.421875 508.648438 160.847656 509.835938 160.210938 C 511.023438 159.574219 512.179688 158.882812 513.300781 158.136719 C 514.421875 157.386719 515.5 156.585938 516.542969 155.730469 C 517.585938 154.875 518.582031 153.96875 519.535156 153.015625 C 520.488281 152.0625 521.390625 151.066406 522.246094 150.023438 C 523.101562 148.984375 523.902344 147.902344 524.652344 146.78125 C 525.402344 145.660156 526.09375 144.507812 526.730469 143.316406 C 527.363281 142.128906 527.941406 140.914062 528.457031 139.667969 C 528.972656 138.421875 529.425781 137.15625 529.816406 135.867188 C 530.207031 134.574219 530.535156 133.269531 530.796875 131.949219 C 531.058594 130.625 531.257812 129.292969 531.390625 127.953125 C 531.523438 126.613281 531.585938 125.269531 531.585938 123.921875 L 531.585938 69.054688 C 531.585938 67.933594 531.558594 66.808594 531.503906 65.6875 C 531.449219 64.566406 531.367188 63.449219 531.257812 62.332031 C 531.148438 61.214844 531.011719 60.101562 530.84375 58.992188 C 530.679688 57.882812 530.488281 56.777344 530.269531 55.675781 C 530.050781 54.574219 529.804688 53.480469 529.53125 52.390625 C 529.257812 51.300781 528.960938 50.21875 528.632812 49.144531 C 528.308594 48.070312 527.957031 47.007812 527.578125 45.949219 C 527.199219 44.894531 526.796875 43.847656 526.367188 42.808594 C 525.9375 41.773438 525.484375 40.746094 525.003906 39.730469 C 524.523438 38.71875 524.019531 37.714844 523.488281 36.726562 C 522.960938 35.734375 522.40625 34.757812 521.832031 33.796875 C 521.253906 32.832031 520.652344 31.886719 520.03125 30.953125 C 519.40625 30.019531 518.761719 29.101562 518.089844 28.199219 C 517.421875 27.296875 516.730469 26.414062 516.019531 25.546875 C 515.308594 24.679688 514.574219 23.828125 513.820312 22.996094 C 513.066406 22.164062 512.292969 21.351562 511.5 20.558594 C 510.707031 19.765625 509.894531 18.992188 509.0625 18.238281 C 508.230469 17.484375 507.382812 16.75 506.511719 16.039062 C 505.644531 15.328125 504.761719 14.636719 503.859375 13.96875 C 502.957031 13.300781 502.039062 12.652344 501.109375 12.03125 C 500.175781 11.40625 499.226562 10.804688 498.265625 10.230469 C 497.300781 9.652344 496.324219 9.097656 495.335938 8.570312 C 494.34375 8.042969 493.34375 7.535156 492.328125 7.054688 C 491.3125 6.578125 490.289062 6.121094 489.25 5.691406 C 488.214844 5.261719 487.167969 4.859375 486.109375 4.480469 C 485.054688 4.101562 483.988281 3.75 482.914062 3.425781 C 481.839844 3.097656 480.757812 2.800781 479.667969 2.527344 C 478.582031 2.253906 477.484375 2.007812 476.386719 1.789062 C 475.285156 1.570312 474.179688 1.378906 473.070312 1.214844 C 471.957031 1.050781 470.84375 0.914062 469.726562 0.800781 C 468.609375 0.691406 467.492188 0.609375 466.371094 0.554688 C 465.25 0.5 464.128906 0.472656 463.003906 0.472656 L 78.945312 0.472656 C 77.820312 0.472656 76.699219 0.5 75.578125 0.554688 C 74.457031 0.609375 73.339844 0.691406 72.222656 0.800781 C 71.105469 0.914062 69.992188 1.050781 68.878906 1.214844 C 67.769531 1.378906 66.664062 1.570312 65.5625 1.789062 C 64.464844 2.007812 63.367188 2.253906 62.28125 2.527344 C 61.191406 2.800781 60.109375 3.097656 59.035156 3.425781 C 57.960938 3.75 56.894531 4.101562 55.839844 4.480469 C 54.78125 4.859375 53.734375 5.261719 52.699219 5.691406 C 51.660156 6.121094 50.636719 6.578125 49.621094 7.058594 C 48.605469 7.535156 47.605469 8.042969 46.613281 8.570312 C 45.625 9.097656 44.648438 9.652344 43.683594 10.230469 C 42.722656 10.804688 41.773438 11.40625 40.839844 12.03125 C 39.90625 12.652344 38.992188 13.300781 38.089844 13.96875 C 37.1875 14.636719 36.304688 15.328125 35.4375 16.039062 C 34.566406 16.75 33.71875 17.484375 32.886719 18.238281 C 32.054688 18.992188 31.242188 19.765625 30.449219 20.558594 C 29.65625 21.351562 28.882812 22.164062 28.128906 22.996094 C 27.375 23.828125 26.640625 24.679688 25.929688 25.546875 C 25.21875 26.414062 24.527344 27.296875 23.859375 28.199219 C 23.1875 29.101562 22.542969 30.019531 21.917969 30.953125 C 21.296875 31.886719 20.695312 32.832031 20.117188 33.796875 C 19.542969 34.757812 18.988281 35.734375 18.460938 36.726562 C 17.929688 37.714844 17.425781 38.71875 16.945312 39.730469 C 16.464844 40.746094 16.011719 41.773438 15.582031 42.808594 C 15.152344 43.847656 14.75 44.894531 14.371094 45.949219 C 13.992188 47.007812 13.640625 48.070312 13.316406 49.144531 C 12.988281 50.21875 12.6875 51.300781 12.417969 52.390625 C 12.144531 53.480469 11.898438 54.574219 11.679688 55.675781 C 11.460938 56.777344 11.269531 57.882812 11.105469 58.992188 C 10.9375 60.101562 10.800781 61.214844 10.691406 62.332031 C 10.582031 63.449219 10.5 64.566406 10.445312 65.6875 C 10.390625 66.808594 10.363281 67.933594 10.363281 69.054688 L 10.363281 727.445312 C 10.363281 728.566406 10.390625 729.691406 10.445312 730.8125 C 10.5 731.933594 10.582031 733.050781 10.691406 734.167969 C 10.800781 735.285156 10.9375 736.398438 11.105469 737.507812 C 11.269531 738.617188 11.460938 739.722656 11.679688 740.824219 C 11.898438 741.925781 12.144531 743.019531 12.417969 744.109375 C 12.6875 745.199219 12.988281 746.28125 13.316406 747.355469 C 13.640625 748.429688 13.992188 749.492188 14.371094 750.550781 C 14.75 751.605469 15.152344 752.652344 15.582031 753.691406 C 16.011719 754.726562 16.464844 755.753906 16.945312 756.769531 C 17.425781 757.78125 17.929688 758.785156 18.460938 759.773438 C 18.988281 760.765625 19.542969 761.742188 20.117188 762.703125 C 20.695312 763.667969 21.296875 764.613281 21.917969 765.546875 C 22.542969 766.480469 23.1875 767.398438 23.859375 768.300781 C 24.527344 769.203125 25.21875 770.085938 25.929688 770.953125 C 26.640625 771.820312 27.375 772.671875 28.128906 773.503906 C 28.882812 774.335938 29.65625 775.148438 30.449219 775.941406 C 31.242188 776.734375 32.054688 777.507812 32.886719 778.261719 C 33.71875 779.015625 34.566406 779.75 35.4375 780.460938 C 36.304688 781.171875 37.1875 781.863281 38.089844 782.53125 C 38.992188 783.199219 39.90625 783.847656 40.839844 784.46875 C 41.773438 785.09375 42.722656 785.695312 43.683594 786.269531 C 44.648438 786.847656 45.625 787.402344 46.613281 787.929688 C 47.605469 788.457031 48.605469 788.964844 49.621094 789.441406 C 50.636719 789.921875 51.660156 790.378906 52.699219 790.808594 C 53.734375 791.238281 54.78125 791.640625 55.839844 792.019531 C 56.894531 792.398438 57.960938 792.75 59.035156 793.074219 C 60.109375 793.402344 61.191406 793.699219 62.28125 793.972656 C 63.367188 794.246094 64.464844 794.492188 65.5625 794.710938 C 66.664062 794.929688 67.769531 795.121094 68.878906 795.285156 C 69.992188 795.449219 71.105469 795.585938 72.222656 795.699219 C 73.339844 795.808594 74.457031 795.890625 75.578125 795.945312 C 76.699219 796 77.820312 796.027344 78.945312 796.027344 L 463.003906 796.027344 C 464.128906 796.027344 465.25 796 466.371094 795.945312 C 467.492188 795.890625 468.609375 795.808594 469.726562 795.699219 C 470.84375 795.585938 471.957031 795.449219 473.070312 795.285156 C 474.179688 795.121094 475.285156 794.929688 476.386719 794.710938 C 477.484375 794.492188 478.582031 794.246094 479.667969 793.972656 C 480.757812 793.699219 481.839844 793.402344 482.914062 793.074219 C 483.988281 792.75 485.054688 792.398438 486.109375 792.019531 C 487.167969 791.640625 488.214844 791.238281 489.25 790.808594 C 490.289062 790.378906 491.3125 789.921875 492.328125 789.441406 C 493.34375 788.964844 494.34375 788.457031 495.335938 787.929688 C 496.324219 787.402344 497.300781 786.847656 498.265625 786.269531 C 499.226562 785.695312 500.175781 785.09375 501.109375 784.46875 C 502.039062 783.847656 502.957031 783.199219 503.859375 782.53125 C 504.761719 781.863281 505.644531 781.171875 506.511719 780.460938 C 507.382812 779.75 508.230469 779.015625 509.0625 778.261719 C 509.894531 777.507812 510.707031 776.734375 511.5 775.941406 C 512.292969 775.148438 513.066406 774.335938 513.820312 773.503906 C 514.574219 772.671875 515.308594 771.820312 516.019531 770.953125 C 516.730469 770.085938 517.421875 769.203125 518.089844 768.300781 C 518.761719 767.398438 519.40625 766.480469 520.03125 765.546875 C 520.652344 764.613281 521.253906 763.667969 521.832031 762.703125 C 522.40625 761.742188 522.960938 760.765625 523.488281 759.773438 C 524.019531 758.785156 524.523438 757.78125 525.003906 756.769531 C 525.484375 755.753906 525.9375 754.726562 526.367188 753.691406 C 526.796875 752.652344 527.199219 751.605469 527.578125 750.550781 C 527.957031 749.492188 528.308594 748.429688 528.632812 747.355469 C 528.960938 746.28125 529.257812 745.199219 529.53125 744.109375 C 529.804688 743.019531 530.050781 741.925781 530.269531 740.824219 C 530.488281 739.722656 530.679688 738.617188 530.84375 737.507812 C 531.011719 736.398438 531.148438 735.285156 531.257812 734.167969 C 531.367188 733.050781 531.449219 731.933594 531.503906 730.8125 C 531.558594 729.691406 531.585938 728.566406 531.585938 727.445312 L 531.585938 672.578125 C 531.585938 671.230469 531.523438 669.886719 531.390625 668.546875 C 531.257812 667.207031 531.058594 665.875 530.796875 664.550781 C 530.535156 663.230469 530.207031 661.925781 529.816406 660.632812 C 529.425781 659.34375 528.972656 658.078125 528.457031 656.832031 C 527.941406 655.585938 527.363281 654.371094 526.730469 653.183594 C 526.09375 651.992188 525.402344 650.839844 524.652344 649.71875 C 523.902344 648.597656 523.101562 647.515625 522.246094 646.476562 C 521.390625 645.433594 520.488281 644.4375 519.535156 643.484375 C 518.582031 642.53125 517.585938 641.625 516.542969 640.769531 C 515.5 639.914062 514.421875 639.113281 513.300781 638.363281 C 512.179688 637.617188 511.023438 636.925781 509.835938 636.289062 C 508.648438 635.652344 507.429688 635.078125 506.183594 634.5625 C 504.941406 634.046875 503.671875 633.59375 502.382812 633.203125 C 501.09375 632.8125 499.789062 632.484375 498.464844 632.222656 C 497.144531 631.957031 495.8125 631.761719 494.472656 631.628906 C 493.128906 631.496094 491.785156 631.429688 490.4375 631.429688 Z M 490.4375 631.429688 "/></g></g></svg>