<svg xmlns="http://www.w3.org/2000/svg" xmlns:xlink="http://www.w3.org/1999/xlink" width="1080" zoomAndPan="magnify" viewBox="0 0 810 809.999993" height="1080" preserveAspectRatio="xMidYMid meet" version="1.2"><defs><clipPath id="d78cbf7a03"><path d="M 22 81 L 788 81 L 788 681.75 L 22 681.75 Z M 22 81 "/></clipPath></defs><g id="427f5d91a7"><g clip-rule="nonzero" clip-path="url(#d78cbf7a03)"><path style=" stroke:none;fill-rule:nonzero;fill:#b3b3b3;fill-opacity:1;" d="M 775.902344 464 L 691.0625 464 L 691.0625 368.441406 C 691.0625 361.855469 685.703125 356.496094 679.117188 356.496094 L 416.945312 356.496094 L 416.945312 272.882812 L 558.136719 272.882812 C 564.722656 272.882812 570.082031 267.523438 570.082031 260.9375 L 570.082031 92.945312 C 570.082031 86.359375 564.722656 81 558.136719 81 L 251.707031 81 C 245.121094 81 239.761719 86.359375 239.761719 92.945312 L 239.761719 260.785156 C 239.761719 267.371094 245.121094 272.730469 251.707031 272.730469 L 392.902344 272.730469 L 392.902344 356.34375 L 131.035156 356.34375 C 124.449219 356.34375 119.089844 361.703125 119.089844 368.289062 L 119.089844 463.847656 L 34.097656 463.847656 C 27.511719 463.847656 22.152344 469.207031 22.152344 475.792969 L 22.152344 669.359375 C 22.152344 675.945312 27.511719 681.304688 34.097656 681.304688 L 227.664062 681.304688 C 234.25 681.304688 239.609375 675.945312 239.609375 669.359375 L 239.609375 475.945312 C 239.609375 469.359375 234.25 464 227.664062 464 L 142.980469 464 L 142.980469 380.386719 L 393.054688 380.386719 L 393.054688 464 L 308.214844 464 C 301.632812 464 296.269531 469.359375 296.269531 475.945312 L 296.269531 669.511719 C 296.269531 676.097656 301.632812 681.457031 308.214844 681.457031 L 501.785156 681.457031 C 508.367188 681.457031 513.726562 676.097656 513.726562 669.511719 L 513.726562 475.945312 C 513.726562 469.359375 508.367188 464 501.785156 464 L 416.945312 464 L 416.945312 380.386719 L 667.019531 380.386719 L 667.019531 464 L 582.179688 464 C 575.597656 464 570.238281 469.359375 570.238281 475.945312 L 570.238281 669.511719 C 570.238281 676.097656 575.597656 681.457031 582.179688 681.457031 L 775.75 681.457031 C 782.332031 681.457031 787.695312 676.097656 787.695312 669.511719 L 787.695312 475.945312 C 787.847656 469.359375 782.488281 464 775.902344 464 Z M 263.804688 105.042969 L 546.347656 105.042969 L 546.347656 248.839844 L 263.804688 248.839844 Z M 215.71875 657.566406 L 46.195312 657.566406 L 46.195312 488.042969 L 215.875 488.042969 L 215.875 657.566406 Z M 489.839844 657.566406 L 320.160156 657.566406 L 320.160156 488.042969 L 489.839844 488.042969 Z M 763.804688 657.566406 L 594.277344 657.566406 L 594.277344 488.042969 L 763.957031 488.042969 L 763.957031 657.566406 Z M 763.804688 657.566406 "/></g></g></svg>