<svg xmlns="http://www.w3.org/2000/svg" xmlns:xlink="http://www.w3.org/1999/xlink" width="1080" zoomAndPan="magnify" viewBox="0 0 810 809.999993" height="1080" preserveAspectRatio="xMidYMid meet" version="1.2"><defs><clipPath id="5898ff0595"><path d="M 8.636719 17.273438 L 800 17.273438 L 800 809 L 8.636719 809 Z M 8.636719 17.273438 "/></clipPath></defs><g id="5d7423cffd"><g clip-rule="nonzero" clip-path="url(#5898ff0595)"><path style=" stroke:none;fill-rule:evenodd;fill:#ffd166;fill-opacity:1;" d="M 403.152344 15.429688 C 184.398438 15.429688 6.792969 193.035156 6.792969 411.789062 C 6.792969 630.542969 184.398438 808.144531 403.152344 808.144531 C 621.902344 808.144531 799.507812 630.542969 799.507812 411.789062 C 799.507812 193.035156 621.902344 15.429688 403.152344 15.429688 Z M 403.152344 70.738281 C 591.375 70.738281 744.203125 223.566406 744.203125 411.789062 C 744.203125 600.011719 591.375 752.839844 403.152344 752.839844 C 214.925781 752.839844 62.097656 600.011719 62.097656 411.789062 C 62.097656 223.566406 214.925781 70.738281 403.152344 70.738281 Z M 403.152344 70.738281 "/></g><path style=" stroke:none;fill-rule:evenodd;fill:#ffd166;fill-opacity:1;" d="M 218.800781 439.441406 L 587.503906 439.441406 C 602.769531 439.441406 615.15625 427.054688 615.15625 411.789062 C 615.15625 396.523438 602.769531 384.136719 587.503906 384.136719 L 218.800781 384.136719 C 203.535156 384.136719 191.144531 396.523438 191.144531 411.789062 C 191.144531 427.054688 203.535156 439.441406 218.800781 439.441406 Z M 218.800781 439.441406 "/><path style=" stroke:none;fill-rule:evenodd;fill:#ffd166;fill-opacity:1;" d="M 430.804688 596.140625 L 430.804688 227.4375 C 430.804688 212.171875 418.414062 199.785156 403.152344 199.785156 C 387.886719 199.785156 375.5 212.171875 375.5 227.4375 L 375.5 596.140625 C 375.5 611.40625 387.886719 623.792969 403.152344 623.792969 C 418.414062 623.792969 430.804688 611.40625 430.804688 596.140625 Z M 430.804688 596.140625 "/></g></svg>