<svg xmlns="http://www.w3.org/2000/svg" xmlns:xlink="http://www.w3.org/1999/xlink" width="1080" zoomAndPan="magnify" viewBox="0 0 810 809.999993" height="1080" preserveAspectRatio="xMidYMid meet" version="1.2"><defs><clipPath id="d91a63fc68"><path d="M 44.519531 44.519531 L 765.265625 44.519531 L 765.265625 765.265625 L 44.519531 765.265625 Z M 44.519531 44.519531 "/></clipPath></defs><g id="a1efbdf778"><g clip-rule="nonzero" clip-path="url(#d91a63fc68)"><path style=" stroke:none;fill-rule:nonzero;fill:#b3b3b3;fill-opacity:1;" d="M 374.996094 752.65625 L 434.808594 752.65625 L 434.808594 684.421875 C 434.808594 681.242188 437.179688 678.550781 440.320312 678.15625 C 464.605469 675.035156 488.335938 668.679688 510.878906 659.285156 C 513.804688 658.066406 517.175781 659.207031 518.773438 661.964844 L 552.878906 721.019531 L 604.675781 691.117188 L 570.539062 631.996094 C 568.964844 629.25 569.652344 625.746094 572.167969 623.8125 C 591.589844 608.953125 608.960938 591.582031 623.804688 572.183594 C 625.734375 569.664062 629.238281 568.964844 631.980469 570.554688 L 691.113281 604.691406 L 721.011719 552.882812 L 661.941406 518.773438 C 659.1875 517.191406 658.054688 513.796875 659.273438 510.863281 C 668.679688 488.308594 675.019531 464.574219 678.136719 440.332031 C 678.550781 437.179688 681.230469 434.824219 684.410156 434.824219 L 752.65625 434.824219 L 752.65625 375.003906 L 684.410156 375.003906 C 681.230469 375.003906 678.550781 372.636719 678.136719 369.484375 C 675.019531 345.207031 668.679688 321.480469 659.277344 298.945312 C 658.054688 296.011719 659.203125 292.625 661.953125 291.035156 L 721.011719 256.9375 L 691.113281 205.136719 L 631.980469 239.269531 C 629.238281 240.859375 625.734375 240.164062 623.804688 237.640625 C 608.960938 218.226562 591.589844 200.855469 572.167969 186.003906 C 569.652344 184.082031 568.964844 180.578125 570.539062 177.828125 L 604.675781 118.707031 L 552.878906 88.796875 L 518.773438 147.875 C 517.175781 150.625 513.785156 151.769531 510.859375 150.542969 C 488.304688 141.132812 464.574219 134.78125 440.320312 131.671875 C 437.179688 131.265625 434.808594 128.585938 434.808594 125.398438 L 434.808594 57.164062 L 374.996094 57.164062 L 374.996094 125.398438 C 374.996094 128.585938 372.644531 131.265625 369.476562 131.671875 C 345.207031 134.78125 321.480469 141.132812 298.945312 150.535156 C 296.011719 151.761719 292.617188 150.613281 291.042969 147.867188 L 256.929688 88.796875 L 205.132812 118.707031 L 239.253906 177.832031 C 240.859375 180.585938 240.152344 184.089844 237.625 186.007812 C 218.230469 200.867188 200.867188 218.238281 186.007812 237.640625 C 184.089844 240.171875 180.585938 240.863281 177.832031 239.273438 L 118.707031 205.136719 L 88.796875 256.945312 L 147.867188 291.046875 C 150.625 292.636719 151.769531 296.023438 150.546875 298.957031 C 141.148438 321.5 134.792969 345.226562 131.679688 369.484375 C 131.265625 372.636719 128.589844 375.003906 125.40625 375.003906 L 57.164062 375.003906 L 57.164062 434.824219 L 125.390625 434.824219 C 128.570312 434.824219 131.257812 437.179688 131.667969 440.332031 C 134.773438 464.605469 141.132812 488.34375 150.53125 510.878906 C 151.75 513.804688 150.601562 517.195312 147.855469 518.78125 L 88.796875 552.882812 L 118.707031 604.691406 L 177.8125 570.554688 C 180.566406 568.964844 184.074219 569.664062 185.996094 572.183594 C 200.867188 591.589844 218.230469 608.964844 237.625 623.8125 C 240.152344 625.738281 240.859375 629.25 239.253906 631.996094 L 205.132812 691.117188 L 256.929688 721.019531 L 291.042969 661.953125 C 292.617188 659.195312 296.011719 658.054688 298.945312 659.273438 C 321.5 668.679688 345.222656 675.035156 369.476562 678.148438 C 372.644531 678.550781 374.996094 681.242188 374.996094 684.417969 Z M 441.136719 765.304688 L 368.671875 765.304688 C 365.179688 765.304688 362.34375 762.476562 362.34375 758.984375 L 362.34375 689.933594 C 340.730469 686.71875 319.558594 681.0625 299.242188 673.035156 L 264.714844 732.816406 C 262.964844 735.84375 259.097656 736.878906 256.085938 735.136719 L 193.328125 698.90625 C 191.882812 698.070312 190.824219 696.679688 190.394531 695.0625 C 189.949219 693.449219 190.179688 691.714844 191.019531 690.269531 L 225.558594 630.429688 C 208.492188 616.832031 192.976562 601.335938 179.378906 584.25 L 119.546875 618.796875 C 118.097656 619.632812 116.371094 619.867188 114.75 619.425781 C 113.121094 618.992188 111.738281 617.933594 110.902344 616.488281 L 74.683594 553.726562 C 73.847656 552.28125 73.613281 550.546875 74.054688 548.933594 C 74.488281 547.3125 75.539062 545.929688 76.988281 545.097656 L 136.765625 510.585938 C 128.753906 490.28125 123.089844 469.097656 119.894531 447.464844 L 50.84375 447.464844 C 47.347656 447.464844 44.519531 444.628906 44.519531 441.144531 L 44.519531 368.679688 C 44.519531 365.1875 47.347656 362.359375 50.84375 362.359375 L 119.914062 362.359375 C 123.101562 340.738281 128.765625 319.558594 136.785156 299.25 L 76.988281 264.730469 C 75.539062 263.894531 74.488281 262.511719 74.054688 260.886719 C 73.613281 259.265625 73.847656 257.546875 74.683594 256.09375 L 110.902344 193.339844 C 111.738281 191.886719 113.121094 190.824219 114.75 190.390625 C 116.371094 189.960938 118.097656 190.179688 119.546875 191.023438 L 179.398438 225.570312 C 192.996094 208.5 208.492188 192.996094 225.558594 179.390625 L 191.019531 119.550781 C 190.179688 118.097656 189.949219 116.378906 190.394531 114.75 C 190.824219 113.136719 191.882812 111.753906 193.328125 110.917969 L 256.085938 74.691406 C 257.539062 73.847656 259.265625 73.621094 260.882812 74.054688 C 262.511719 74.480469 263.886719 75.546875 264.714844 77 L 299.222656 136.773438 C 319.546875 128.765625 340.730469 123.09375 362.34375 119.894531 L 362.34375 50.84375 C 362.34375 47.351562 365.179688 44.519531 368.671875 44.519531 L 441.136719 44.519531 C 444.621094 44.519531 447.449219 47.351562 447.449219 50.84375 L 447.449219 119.894531 C 469.078125 123.09375 490.25 128.765625 510.578125 136.785156 L 545.085938 77 C 545.929688 75.546875 547.3125 74.480469 548.921875 74.054688 C 550.535156 73.621094 552.269531 73.847656 553.734375 74.691406 L 616.480469 110.917969 C 617.925781 111.753906 618.992188 113.136719 619.425781 114.75 C 619.855469 116.378906 619.621094 118.097656 618.796875 119.550781 L 584.238281 179.390625 C 601.328125 192.992188 616.824219 208.492188 630.425781 225.570312 L 690.257812 191.023438 C 691.714844 190.179688 693.433594 189.960938 695.0625 190.390625 C 696.671875 190.824219 698.054688 191.886719 698.890625 193.339844 L 735.125 256.09375 C 736.863281 259.117188 735.84375 262.976562 732.816406 264.730469 L 673.054688 299.238281 C 681.054688 319.546875 686.714844 340.726562 689.925781 362.359375 L 758.976562 362.359375 C 762.46875 362.359375 765.304688 365.1875 765.304688 368.679688 L 765.304688 441.144531 C 765.304688 444.628906 762.46875 447.464844 758.976562 447.464844 L 689.925781 447.464844 C 686.714844 469.070312 681.054688 490.257812 673.027344 510.578125 L 732.816406 545.097656 C 735.84375 546.835938 736.863281 550.710938 735.125 553.726562 L 698.890625 616.488281 C 698.054688 617.933594 696.671875 618.992188 695.0625 619.425781 C 693.433594 619.867188 691.714844 619.632812 690.257812 618.796875 L 630.425781 584.25 C 616.824219 601.328125 601.328125 616.832031 584.238281 630.429688 L 618.796875 690.269531 C 619.621094 691.714844 619.855469 693.449219 619.425781 695.0625 C 618.984375 696.679688 617.925781 698.070312 616.480469 698.90625 L 553.734375 735.136719 C 550.703125 736.882812 546.832031 735.84375 545.085938 732.816406 L 510.578125 673.046875 C 490.28125 681.0625 469.082031 686.71875 447.449219 689.933594 L 447.449219 758.984375 C 447.449219 762.476562 444.621094 765.304688 441.136719 765.304688 "/></g><path style=" stroke:none;fill-rule:nonzero;fill:#b3b3b3;fill-opacity:1;" d="M 404.902344 205.746094 C 295.089844 205.746094 205.742188 295.089844 205.742188 404.910156 C 205.742188 514.730469 295.089844 604.074219 404.902344 604.074219 C 514.730469 604.074219 604.066406 514.730469 604.066406 404.910156 C 604.066406 295.089844 514.730469 205.746094 404.902344 205.746094 Z M 404.902344 616.71875 C 288.109375 616.71875 193.089844 521.699219 193.089844 404.910156 C 193.089844 288.121094 288.109375 193.101562 404.902344 193.101562 C 521.6875 193.101562 616.707031 288.121094 616.707031 404.910156 C 616.707031 521.699219 521.6875 616.71875 404.902344 616.71875 "/></g></svg>