<svg xmlns="http://www.w3.org/2000/svg" xmlns:xlink="http://www.w3.org/1999/xlink" width="1080" zoomAndPan="magnify" viewBox="0 0 810 809.999993" height="1080" preserveAspectRatio="xMidYMid meet" version="1.2"><defs><clipPath id="47b7d1a6b1"><path d="M 25.492188 25.492188 L 784.492188 25.492188 L 784.492188 784.492188 L 25.492188 784.492188 Z M 25.492188 25.492188 "/></clipPath><clipPath id="d22a8f50b3"><path d="M 121 468 L 689 468 L 689 784.492188 L 121 784.492188 Z M 121 468 "/></clipPath></defs><g id="8192204286"><g clip-rule="nonzero" clip-path="url(#47b7d1a6b1)"><path style=" stroke:none;fill-rule:nonzero;fill:#b3b3b3;fill-opacity:1;" d="M 784.523438 405.007812 C 784.523438 502.097656 748.089844 590.648438 688.09375 657.761719 C 618.613281 735.5625 517.539062 784.519531 405.011719 784.519531 C 292.488281 784.519531 191.378906 735.5625 121.929688 657.761719 C 61.933594 590.648438 25.503906 502.097656 25.503906 405.007812 C 25.503906 195.421875 195.394531 25.496094 405.011719 25.496094 C 614.597656 25.496094 784.523438 195.421875 784.523438 405.007812 "/></g><path style=" stroke:none;fill-rule:nonzero;fill:#f2f2f2;fill-opacity:1;" d="M 405.011719 474.914062 C 473.796875 474.914062 536.445312 397.09375 536.445312 311.644531 C 536.445312 230.910156 520.832031 151.074219 405.011719 151.074219 C 289.179688 151.074219 273.5625 230.910156 273.5625 311.644531 C 273.5625 397.09375 336.21875 474.914062 405.011719 474.914062 "/><g clip-rule="nonzero" clip-path="url(#d22a8f50b3)"><path style=" stroke:none;fill-rule:nonzero;fill:#f2f2f2;fill-opacity:1;" d="M 688.09375 657.761719 C 618.613281 735.5625 517.539062 784.519531 405.011719 784.519531 C 292.488281 784.519531 191.378906 735.5625 121.929688 657.761719 C 120.730469 610.890625 151.941406 502.289062 311.148438 468.859375 C 338.378906 496.65625 371.898438 512.375 405.011719 512.375 C 438.125 512.375 471.617188 496.65625 498.847656 468.859375 C 658.085938 502.289062 689.269531 610.890625 688.09375 657.761719 "/></g></g></svg>