<svg xmlns="http://www.w3.org/2000/svg" xmlns:xlink="http://www.w3.org/1999/xlink" width="1080" zoomAndPan="magnify" viewBox="0 0 810 809.999993" height="1080" preserveAspectRatio="xMidYMid meet" version="1.2"><defs><clipPath id="11396f1a9c"><path d="M 285 147.933594 L 525 147.933594 L 525 388 L 285 388 Z M 285 147.933594 "/></clipPath><clipPath id="aaf432b232"><path d="M 182 422 L 628 422 L 628 662.433594 L 182 662.433594 Z M 182 422 "/></clipPath><clipPath id="5968d43625"><path d="M 10.269531 490 L 198 490 L 198 662.433594 L 10.269531 662.433594 Z M 10.269531 490 "/></clipPath><clipPath id="f977fbe209"><path d="M 612 490 L 800 490 L 800 662.433594 L 612 662.433594 Z M 612 490 "/></clipPath></defs><g id="d4d1c8bf17"><g clip-rule="nonzero" clip-path="url(#11396f1a9c)"><path style=" stroke:none;fill-rule:nonzero;fill:#a6a6a6;fill-opacity:1;" d="M 524.960938 267.894531 C 524.960938 269.859375 524.914062 271.820312 524.816406 273.78125 C 524.71875 275.742188 524.574219 277.699219 524.382812 279.652344 C 524.191406 281.605469 523.949219 283.554688 523.664062 285.496094 C 523.375 287.4375 523.039062 289.371094 522.65625 291.296875 C 522.273438 293.222656 521.84375 295.140625 521.367188 297.042969 C 520.890625 298.949219 520.367188 300.839844 519.796875 302.71875 C 519.226562 304.597656 518.609375 306.460938 517.949219 308.308594 C 517.289062 310.15625 516.582031 311.988281 515.828125 313.800781 C 515.078125 315.617188 514.28125 317.410156 513.445312 319.183594 C 512.605469 320.960938 511.722656 322.714844 510.796875 324.445312 C 509.871094 326.175781 508.902344 327.882812 507.894531 329.566406 C 506.882812 331.25 505.835938 332.910156 504.742188 334.542969 C 503.652344 336.175781 502.523438 337.78125 501.351562 339.355469 C 500.183594 340.933594 498.976562 342.480469 497.730469 344 C 496.484375 345.515625 495.203125 347 493.886719 348.457031 C 492.566406 349.910156 491.214844 351.332031 489.824219 352.722656 C 488.4375 354.109375 487.015625 355.460938 485.558594 356.78125 C 484.105469 358.097656 482.621094 359.382812 481.101562 360.628906 C 479.585938 361.871094 478.039062 363.078125 476.460938 364.25 C 474.882812 365.417969 473.277344 366.550781 471.644531 367.640625 C 470.015625 368.730469 468.355469 369.78125 466.671875 370.789062 C 464.988281 371.800781 463.28125 372.765625 461.546875 373.691406 C 459.816406 374.617188 458.0625 375.5 456.289062 376.339844 C 454.515625 377.179688 452.71875 377.972656 450.90625 378.726562 C 449.09375 379.476562 447.261719 380.183594 445.414062 380.84375 C 443.5625 381.507812 441.699219 382.121094 439.820312 382.691406 C 437.941406 383.261719 436.050781 383.785156 434.148438 384.261719 C 432.242188 384.738281 430.328125 385.167969 428.402344 385.550781 C 426.476562 385.933594 424.542969 386.269531 422.601562 386.558594 C 420.660156 386.847656 418.710938 387.085938 416.757812 387.28125 C 414.804688 387.472656 412.847656 387.617188 410.886719 387.710938 C 408.925781 387.808594 406.960938 387.855469 405 387.855469 C 403.035156 387.855469 401.074219 387.808594 399.113281 387.710938 C 397.152344 387.617188 395.195312 387.472656 393.242188 387.28125 C 391.285156 387.085938 389.339844 386.847656 387.398438 386.558594 C 385.453125 386.269531 383.519531 385.933594 381.59375 385.550781 C 379.667969 385.167969 377.753906 384.738281 375.851562 384.261719 C 373.945312 383.785156 372.054688 383.261719 370.175781 382.691406 C 368.296875 382.121094 366.433594 381.507812 364.585938 380.84375 C 362.734375 380.183594 360.90625 379.476562 359.089844 378.726562 C 357.277344 377.972656 355.484375 377.179688 353.707031 376.339844 C 351.933594 375.5 350.179688 374.617188 348.449219 373.691406 C 346.71875 372.765625 345.007812 371.800781 343.324219 370.789062 C 341.640625 369.78125 339.984375 368.730469 338.351562 367.640625 C 336.71875 366.550781 335.113281 365.417969 333.539062 364.25 C 331.960938 363.078125 330.414062 361.871094 328.894531 360.628906 C 327.378906 359.382812 325.890625 358.097656 324.4375 356.78125 C 322.980469 355.460938 321.5625 354.109375 320.171875 352.722656 C 318.785156 351.332031 317.429688 349.910156 316.113281 348.457031 C 314.792969 347 313.511719 345.515625 312.265625 344 C 311.019531 342.480469 309.8125 340.933594 308.644531 339.355469 C 307.472656 337.78125 306.34375 336.175781 305.253906 334.542969 C 304.164062 332.910156 303.113281 331.25 302.101562 329.566406 C 301.09375 327.882812 300.125 326.175781 299.203125 324.445312 C 298.277344 322.714844 297.394531 320.960938 296.554688 319.183594 C 295.714844 317.410156 294.917969 315.617188 294.167969 313.800781 C 293.417969 311.988281 292.710938 310.15625 292.046875 308.308594 C 291.386719 306.460938 290.773438 304.597656 290.203125 302.71875 C 289.632812 300.839844 289.109375 298.949219 288.632812 297.042969 C 288.152344 295.140625 287.722656 293.222656 287.339844 291.296875 C 286.957031 289.371094 286.621094 287.4375 286.335938 285.496094 C 286.046875 283.554688 285.804688 281.605469 285.613281 279.652344 C 285.421875 277.699219 285.277344 275.742188 285.179688 273.78125 C 285.085938 271.820312 285.035156 269.859375 285.035156 267.894531 C 285.035156 265.929688 285.085938 263.96875 285.179688 262.007812 C 285.277344 260.046875 285.421875 258.089844 285.613281 256.136719 C 285.804688 254.183594 286.046875 252.234375 286.335938 250.292969 C 286.621094 248.351562 286.957031 246.417969 287.339844 244.492188 C 287.722656 242.566406 288.152344 240.652344 288.632812 238.746094 C 289.109375 236.839844 289.632812 234.949219 290.203125 233.070312 C 290.773438 231.191406 291.386719 229.328125 292.046875 227.480469 C 292.710938 225.632812 293.417969 223.800781 294.167969 221.988281 C 294.917969 220.171875 295.714844 218.378906 296.554688 216.605469 C 297.394531 214.828125 298.277344 213.078125 299.203125 211.34375 C 300.125 209.613281 301.09375 207.90625 302.101562 206.222656 C 303.113281 204.539062 304.164062 202.878906 305.253906 201.246094 C 306.34375 199.613281 307.472656 198.011719 308.644531 196.433594 C 309.8125 194.855469 311.019531 193.308594 312.265625 191.792969 C 313.511719 190.273438 314.792969 188.789062 316.113281 187.332031 C 317.429688 185.878906 318.785156 184.457031 320.171875 183.070312 C 321.5625 181.679688 322.980469 180.328125 324.4375 179.007812 C 325.890625 177.691406 327.378906 176.40625 328.894531 175.164062 C 330.414062 173.917969 331.960938 172.710938 333.539062 171.539062 C 335.113281 170.371094 336.71875 169.242188 338.351562 168.148438 C 339.984375 167.058594 341.640625 166.007812 343.324219 165 C 345.007812 163.988281 346.71875 163.023438 348.449219 162.097656 C 350.179688 161.171875 351.933594 160.289062 353.707031 159.449219 C 355.484375 158.609375 357.277344 157.816406 359.089844 157.0625 C 360.90625 156.3125 362.734375 155.605469 364.585938 154.945312 C 366.433594 154.285156 368.296875 153.667969 370.175781 153.097656 C 372.054688 152.527344 373.945312 152.003906 375.851562 151.527344 C 377.753906 151.050781 379.667969 150.621094 381.59375 150.238281 C 383.519531 149.855469 385.453125 149.519531 387.398438 149.230469 C 389.339844 148.941406 391.285156 148.703125 393.242188 148.511719 C 395.195312 148.316406 397.152344 148.171875 399.113281 148.078125 C 401.074219 147.980469 403.035156 147.933594 405 147.933594 C 406.960938 147.933594 408.925781 147.980469 410.886719 148.078125 C 412.847656 148.171875 414.804688 148.316406 416.757812 148.511719 C 418.710938 148.703125 420.660156 148.941406 422.601562 149.230469 C 424.542969 149.519531 426.476562 149.855469 428.402344 150.238281 C 430.328125 150.621094 432.242188 151.050781 434.148438 151.527344 C 436.050781 152.003906 437.941406 152.527344 439.820312 153.097656 C 441.699219 153.667969 443.5625 154.285156 445.414062 154.945312 C 447.261719 155.605469 449.09375 156.3125 450.90625 157.0625 C 452.71875 157.816406 454.515625 158.609375 456.289062 159.449219 C 458.0625 160.289062 459.816406 161.171875 461.546875 162.097656 C 463.28125 163.023438 464.988281 163.988281 466.671875 165 C 468.355469 166.007812 470.015625 167.058594 471.644531 168.148438 C 473.277344 169.242188 474.882812 170.371094 476.460938 171.539062 C 478.039062 172.710938 479.585938 173.917969 481.101562 175.164062 C 482.621094 176.40625 484.105469 177.691406 485.5625 179.007812 C 487.015625 180.328125 488.4375 181.679688 489.824219 183.070312 C 491.214844 184.457031 492.566406 185.878906 493.886719 187.332031 C 495.203125 188.789062 496.484375 190.273438 497.730469 191.792969 C 498.976562 193.308594 500.183594 194.855469 501.351562 196.433594 C 502.523438 198.011719 503.652344 199.613281 504.742188 201.246094 C 505.835938 202.878906 506.882812 204.539062 507.894531 206.222656 C 508.902344 207.90625 509.871094 209.613281 510.796875 211.34375 C 511.722656 213.078125 512.605469 214.828125 513.445312 216.605469 C 514.28125 218.378906 515.078125 220.171875 515.828125 221.988281 C 516.582031 223.800781 517.289062 225.632812 517.949219 227.480469 C 518.609375 229.328125 519.226562 231.191406 519.796875 233.070312 C 520.367188 234.949219 520.890625 236.839844 521.367188 238.746094 C 521.84375 240.652344 522.273438 242.566406 522.65625 244.492188 C 523.039062 246.417969 523.375 248.351562 523.664062 250.292969 C 523.949219 252.234375 524.191406 254.183594 524.382812 256.136719 C 524.574219 258.089844 524.71875 260.046875 524.816406 262.007812 C 524.914062 263.96875 524.960938 265.929688 524.960938 267.894531 Z M 524.960938 267.894531 "/></g><path style=" stroke:none;fill-rule:nonzero;fill:#a6a6a6;fill-opacity:1;" d="M 730.609375 370.71875 C 730.609375 372.121094 730.578125 373.523438 730.507812 374.925781 C 730.4375 376.324219 730.335938 377.722656 730.199219 379.117188 C 730.0625 380.515625 729.890625 381.90625 729.683594 383.292969 C 729.476562 384.679688 729.238281 386.0625 728.964844 387.4375 C 728.691406 388.8125 728.382812 390.179688 728.042969 391.539062 C 727.703125 392.898438 727.328125 394.25 726.921875 395.59375 C 726.515625 396.933594 726.074219 398.265625 725.601562 399.585938 C 725.128906 400.90625 724.625 402.214844 724.089844 403.511719 C 723.550781 404.804688 722.984375 406.089844 722.382812 407.355469 C 721.785156 408.625 721.15625 409.875 720.492188 411.113281 C 719.832031 412.347656 719.140625 413.570312 718.421875 414.773438 C 717.699219 415.976562 716.949219 417.160156 716.171875 418.324219 C 715.390625 419.492188 714.582031 420.636719 713.75 421.765625 C 712.914062 422.890625 712.050781 423.996094 711.160156 425.078125 C 710.269531 426.164062 709.355469 427.226562 708.414062 428.265625 C 707.472656 429.304688 706.503906 430.316406 705.515625 431.308594 C 704.523438 432.300781 703.507812 433.269531 702.46875 434.210938 C 701.429688 435.152344 700.367188 436.066406 699.285156 436.957031 C 698.199219 437.847656 697.09375 438.710938 695.96875 439.542969 C 694.839844 440.378906 693.695312 441.1875 692.527344 441.964844 C 691.363281 442.746094 690.179688 443.496094 688.976562 444.214844 C 687.773438 444.9375 686.554688 445.628906 685.316406 446.289062 C 684.078125 446.949219 682.828125 447.582031 681.558594 448.179688 C 680.292969 448.78125 679.011719 449.347656 677.714844 449.882812 C 676.417969 450.421875 675.109375 450.925781 673.789062 451.398438 C 672.46875 451.871094 671.140625 452.308594 669.796875 452.71875 C 668.457031 453.125 667.105469 453.5 665.742188 453.839844 C 664.382812 454.179688 663.015625 454.488281 661.640625 454.761719 C 660.265625 455.035156 658.882812 455.273438 657.496094 455.480469 C 656.109375 455.683594 654.71875 455.855469 653.324219 455.996094 C 651.925781 456.132812 650.527344 456.234375 649.128906 456.304688 C 647.726562 456.371094 646.324219 456.40625 644.921875 456.40625 C 643.519531 456.40625 642.121094 456.371094 640.71875 456.304688 C 639.320312 456.234375 637.921875 456.132812 636.523438 455.996094 C 635.128906 455.855469 633.738281 455.683594 632.351562 455.480469 C 630.964844 455.273438 629.582031 455.035156 628.207031 454.761719 C 626.832031 454.488281 625.464844 454.179688 624.101562 453.839844 C 622.742188 453.5 621.390625 453.125 620.050781 452.71875 C 618.707031 452.308594 617.375 451.871094 616.054688 451.398438 C 614.734375 450.925781 613.429688 450.421875 612.132812 449.882812 C 610.835938 449.347656 609.554688 448.78125 608.289062 448.179688 C 607.019531 447.582031 605.765625 446.949219 604.53125 446.289062 C 603.292969 445.628906 602.074219 444.9375 600.871094 444.214844 C 599.667969 443.496094 598.484375 442.746094 597.316406 441.964844 C 596.152344 441.1875 595.007812 440.378906 593.878906 439.542969 C 592.753906 438.710938 591.648438 437.847656 590.5625 436.957031 C 589.480469 436.066406 588.417969 435.152344 587.378906 434.210938 C 586.339844 433.269531 585.324219 432.300781 584.332031 431.308594 C 583.34375 430.316406 582.375 429.304688 581.433594 428.265625 C 580.492188 427.226562 579.574219 426.164062 578.6875 425.078125 C 577.796875 423.996094 576.933594 422.890625 576.097656 421.765625 C 575.261719 420.636719 574.457031 419.492188 573.675781 418.324219 C 572.898438 417.160156 572.148438 415.976562 571.425781 414.773438 C 570.707031 413.570312 570.015625 412.347656 569.355469 411.113281 C 568.691406 409.875 568.0625 408.625 567.464844 407.355469 C 566.863281 406.089844 566.296875 404.804688 565.757812 403.511719 C 565.222656 402.214844 564.71875 400.90625 564.246094 399.585938 C 563.773438 398.265625 563.332031 396.933594 562.925781 395.59375 C 562.519531 394.25 562.144531 392.898438 561.804688 391.539062 C 561.464844 390.179688 561.15625 388.8125 560.882812 387.4375 C 560.609375 386.0625 560.371094 384.679688 560.164062 383.292969 C 559.957031 381.90625 559.785156 380.515625 559.648438 379.117188 C 559.511719 377.722656 559.410156 376.324219 559.339844 374.925781 C 559.269531 373.523438 559.234375 372.121094 559.234375 370.71875 C 559.234375 369.316406 559.269531 367.914062 559.339844 366.515625 C 559.410156 365.113281 559.511719 363.714844 559.648438 362.320312 C 559.785156 360.925781 559.957031 359.535156 560.164062 358.148438 C 560.371094 356.757812 560.609375 355.378906 560.882812 354.003906 C 561.15625 352.628906 561.464844 351.257812 561.804688 349.898438 C 562.144531 348.539062 562.519531 347.1875 562.925781 345.847656 C 563.332031 344.503906 563.773438 343.171875 564.246094 341.851562 C 564.71875 340.53125 565.222656 339.222656 565.757812 337.929688 C 566.296875 336.632812 566.863281 335.351562 567.464844 334.082031 C 568.0625 332.816406 568.691406 331.5625 569.355469 330.328125 C 570.015625 329.089844 570.707031 327.871094 571.425781 326.667969 C 572.148438 325.464844 572.898438 324.28125 573.675781 323.113281 C 574.457031 321.949219 575.261719 320.800781 576.097656 319.675781 C 576.933594 318.550781 577.796875 317.445312 578.6875 316.359375 C 579.574219 315.277344 580.492188 314.214844 581.433594 313.175781 C 582.375 312.136719 583.34375 311.121094 584.332031 310.128906 C 585.324219 309.136719 586.339844 308.171875 587.378906 307.230469 C 588.417969 306.289062 589.480469 305.371094 590.5625 304.480469 C 591.648438 303.59375 592.753906 302.730469 593.878906 301.894531 C 595.007812 301.058594 596.152344 300.253906 597.316406 299.472656 C 598.484375 298.695312 599.667969 297.945312 600.871094 297.222656 C 602.074219 296.503906 603.292969 295.8125 604.53125 295.148438 C 605.765625 294.488281 607.019531 293.859375 608.289062 293.257812 C 609.554688 292.660156 610.835938 292.089844 612.132812 291.554688 C 613.429688 291.019531 614.734375 290.511719 616.054688 290.042969 C 617.375 289.570312 618.707031 289.128906 620.050781 288.722656 C 621.390625 288.316406 622.742188 287.941406 624.101562 287.601562 C 625.464844 287.257812 626.832031 286.953125 628.207031 286.679688 C 629.582031 286.40625 630.964844 286.164062 632.351562 285.960938 C 633.738281 285.753906 635.128906 285.582031 636.523438 285.445312 C 637.921875 285.308594 639.320312 285.203125 640.71875 285.136719 C 642.121094 285.066406 643.519531 285.03125 644.921875 285.03125 C 646.324219 285.03125 647.726562 285.066406 649.128906 285.136719 C 650.527344 285.203125 651.925781 285.308594 653.324219 285.445312 C 654.71875 285.582031 656.109375 285.753906 657.496094 285.960938 C 658.882812 286.164062 660.265625 286.40625 661.640625 286.679688 C 663.015625 286.953125 664.382812 287.257812 665.742188 287.601562 C 667.105469 287.941406 668.457031 288.316406 669.796875 288.722656 C 671.140625 289.128906 672.46875 289.570312 673.789062 290.042969 C 675.109375 290.511719 676.417969 291.019531 677.714844 291.554688 C 679.011719 292.089844 680.292969 292.660156 681.558594 293.257812 C 682.828125 293.859375 684.078125 294.488281 685.316406 295.148438 C 686.554688 295.8125 687.773438 296.503906 688.976562 297.222656 C 690.179688 297.945312 691.363281 298.695312 692.527344 299.472656 C 693.695312 300.253906 694.839844 301.058594 695.96875 301.894531 C 697.09375 302.730469 698.199219 303.59375 699.285156 304.480469 C 700.367188 305.371094 701.429688 306.289062 702.46875 307.230469 C 703.507812 308.171875 704.523438 309.136719 705.515625 310.128906 C 706.503906 311.121094 707.472656 312.136719 708.414062 313.175781 C 709.355469 314.214844 710.269531 315.277344 711.160156 316.359375 C 712.050781 317.445312 712.914062 318.550781 713.75 319.675781 C 714.582031 320.800781 715.390625 321.949219 716.171875 323.113281 C 716.949219 324.28125 717.699219 325.464844 718.421875 326.667969 C 719.140625 327.871094 719.832031 329.089844 720.492188 330.328125 C 721.15625 331.5625 721.785156 332.816406 722.382812 334.082031 C 722.984375 335.351562 723.550781 336.632812 724.089844 337.929688 C 724.625 339.222656 725.128906 340.53125 725.601562 341.851562 C 726.074219 343.171875 726.515625 344.503906 726.921875 345.847656 C 727.328125 347.1875 727.703125 348.539062 728.042969 349.898438 C 728.382812 351.257812 728.691406 352.628906 728.964844 354.003906 C 729.238281 355.378906 729.476562 356.757812 729.683594 358.148438 C 729.890625 359.535156 730.0625 360.925781 730.199219 362.320312 C 730.335938 363.714844 730.4375 365.113281 730.507812 366.515625 C 730.578125 367.914062 730.609375 369.316406 730.609375 370.71875 Z M 730.609375 370.71875 "/><path style=" stroke:none;fill-rule:nonzero;fill:#a6a6a6;fill-opacity:1;" d="M 253.195312 370.71875 C 253.195312 372.121094 253.160156 373.523438 253.089844 374.925781 C 253.023438 376.324219 252.917969 377.722656 252.78125 379.117188 C 252.644531 380.515625 252.472656 381.90625 252.265625 383.292969 C 252.0625 384.679688 251.820312 386.0625 251.546875 387.4375 C 251.273438 388.8125 250.96875 390.179688 250.625 391.539062 C 250.285156 392.898438 249.914062 394.25 249.503906 395.59375 C 249.097656 396.933594 248.660156 398.265625 248.1875 399.585938 C 247.714844 400.90625 247.207031 402.214844 246.671875 403.511719 C 246.136719 404.804688 245.566406 406.089844 244.96875 407.355469 C 244.367188 408.625 243.738281 409.875 243.078125 411.113281 C 242.414062 412.347656 241.726562 413.570312 241.003906 414.773438 C 240.28125 415.976562 239.53125 417.160156 238.753906 418.324219 C 237.976562 419.492188 237.167969 420.636719 236.332031 421.765625 C 235.496094 422.890625 234.632812 423.996094 233.746094 425.078125 C 232.855469 426.164062 231.9375 427.226562 230.996094 428.265625 C 230.054688 429.304688 229.089844 430.316406 228.097656 431.308594 C 227.105469 432.300781 226.089844 433.269531 225.050781 434.210938 C 224.011719 435.152344 222.949219 436.066406 221.867188 436.957031 C 220.78125 437.847656 219.675781 438.710938 218.550781 439.542969 C 217.425781 440.378906 216.277344 441.1875 215.113281 441.964844 C 213.945312 442.746094 212.761719 443.496094 211.558594 444.214844 C 210.355469 444.9375 209.136719 445.628906 207.898438 446.289062 C 206.664062 446.949219 205.410156 447.582031 204.144531 448.179688 C 202.875 448.78125 201.59375 449.347656 200.296875 449.882812 C 199.003906 450.421875 197.695312 450.925781 196.375 451.398438 C 195.054688 451.871094 193.722656 452.308594 192.382812 452.71875 C 191.039062 453.125 189.6875 453.5 188.328125 453.839844 C 186.96875 454.179688 185.597656 454.488281 184.222656 454.761719 C 182.847656 455.035156 181.46875 455.273438 180.082031 455.480469 C 178.691406 455.683594 177.300781 455.855469 175.90625 455.996094 C 174.511719 456.132812 173.113281 456.234375 171.710938 456.304688 C 170.3125 456.371094 168.910156 456.40625 167.507812 456.40625 C 166.105469 456.40625 164.703125 456.371094 163.304688 456.304688 C 161.902344 456.234375 160.503906 456.132812 159.109375 455.996094 C 157.710938 455.855469 156.320312 455.683594 154.933594 455.480469 C 153.546875 455.273438 152.164062 455.035156 150.789062 454.761719 C 149.414062 454.488281 148.046875 454.179688 146.6875 453.839844 C 145.328125 453.5 143.976562 453.125 142.632812 452.71875 C 141.292969 452.308594 139.960938 451.871094 138.640625 451.398438 C 137.320312 450.925781 136.011719 450.421875 134.714844 449.882812 C 133.421875 449.347656 132.140625 448.78125 130.871094 448.179688 C 129.601562 447.582031 128.351562 446.949219 127.113281 446.289062 C 125.878906 445.628906 124.65625 444.9375 123.453125 444.214844 C 122.253906 443.496094 121.066406 442.746094 119.902344 441.964844 C 118.734375 441.1875 117.589844 440.378906 116.464844 439.542969 C 115.335938 438.710938 114.230469 437.847656 113.148438 436.957031 C 112.0625 436.066406 111.003906 435.152344 109.964844 434.210938 C 108.925781 433.269531 107.910156 432.300781 106.917969 431.308594 C 105.925781 430.316406 104.957031 429.304688 104.015625 428.265625 C 103.074219 427.226562 102.160156 426.164062 101.269531 425.078125 C 100.378906 423.996094 99.519531 422.890625 98.683594 421.765625 C 97.847656 420.636719 97.039062 419.492188 96.261719 418.324219 C 95.480469 417.160156 94.730469 415.976562 94.011719 414.773438 C 93.289062 413.570312 92.597656 412.347656 91.9375 411.113281 C 91.277344 409.875 90.644531 408.625 90.046875 407.355469 C 89.445312 406.089844 88.878906 404.804688 88.34375 403.511719 C 87.804688 402.214844 87.300781 400.90625 86.828125 399.585938 C 86.355469 398.265625 85.917969 396.933594 85.507812 395.59375 C 85.101562 394.25 84.726562 392.898438 84.386719 391.539062 C 84.046875 390.179688 83.738281 388.8125 83.464844 387.4375 C 83.191406 386.0625 82.953125 384.679688 82.746094 383.292969 C 82.542969 381.90625 82.371094 380.515625 82.230469 379.117188 C 82.09375 377.722656 81.992188 376.324219 81.921875 374.925781 C 81.855469 373.523438 81.820312 372.121094 81.820312 370.71875 C 81.820312 369.316406 81.855469 367.914062 81.921875 366.515625 C 81.992188 365.113281 82.09375 363.714844 82.230469 362.320312 C 82.371094 360.925781 82.542969 359.535156 82.746094 358.148438 C 82.953125 356.757812 83.191406 355.378906 83.464844 354.003906 C 83.738281 352.628906 84.046875 351.257812 84.386719 349.898438 C 84.726562 348.539062 85.101562 347.1875 85.507812 345.847656 C 85.917969 344.503906 86.355469 343.171875 86.828125 341.851562 C 87.300781 340.53125 87.804688 339.222656 88.34375 337.929688 C 88.878906 336.632812 89.445312 335.351562 90.046875 334.082031 C 90.644531 332.816406 91.277344 331.5625 91.9375 330.328125 C 92.597656 329.089844 93.289062 327.871094 94.011719 326.667969 C 94.730469 325.464844 95.480469 324.28125 96.261719 323.113281 C 97.039062 321.949219 97.847656 320.800781 98.683594 319.675781 C 99.519531 318.550781 100.378906 317.445312 101.269531 316.359375 C 102.160156 315.277344 103.074219 314.214844 104.015625 313.175781 C 104.957031 312.136719 105.925781 311.121094 106.917969 310.128906 C 107.910156 309.136719 108.925781 308.171875 109.964844 307.230469 C 111.003906 306.289062 112.0625 305.371094 113.148438 304.480469 C 114.230469 303.59375 115.335938 302.730469 116.464844 301.894531 C 117.589844 301.058594 118.734375 300.253906 119.902344 299.472656 C 121.066406 298.695312 122.253906 297.945312 123.453125 297.222656 C 124.65625 296.503906 125.878906 295.8125 127.113281 295.148438 C 128.351562 294.488281 129.601562 293.859375 130.871094 293.257812 C 132.140625 292.660156 133.421875 292.089844 134.714844 291.554688 C 136.011719 291.019531 137.320312 290.511719 138.640625 290.042969 C 139.960938 289.570312 141.292969 289.128906 142.632812 288.722656 C 143.976562 288.316406 145.328125 287.941406 146.6875 287.601562 C 148.046875 287.257812 149.414062 286.953125 150.789062 286.679688 C 152.164062 286.40625 153.546875 286.164062 154.933594 285.960938 C 156.320312 285.753906 157.710938 285.582031 159.109375 285.445312 C 160.503906 285.308594 161.902344 285.203125 163.304688 285.136719 C 164.703125 285.066406 166.105469 285.03125 167.507812 285.03125 C 168.910156 285.03125 170.3125 285.066406 171.710938 285.136719 C 173.113281 285.203125 174.511719 285.308594 175.90625 285.445312 C 177.300781 285.582031 178.691406 285.753906 180.082031 285.960938 C 181.46875 286.164062 182.847656 286.40625 184.222656 286.679688 C 185.597656 286.953125 186.96875 287.257812 188.328125 287.601562 C 189.6875 287.941406 191.039062 288.316406 192.382812 288.722656 C 193.722656 289.128906 195.054688 289.570312 196.375 290.042969 C 197.695312 290.511719 199.003906 291.019531 200.296875 291.554688 C 201.59375 292.089844 202.875 292.660156 204.144531 293.257812 C 205.410156 293.859375 206.664062 294.488281 207.898438 295.148438 C 209.136719 295.8125 210.355469 296.503906 211.558594 297.222656 C 212.761719 297.945312 213.945312 298.695312 215.113281 299.472656 C 216.277344 300.253906 217.425781 301.058594 218.550781 301.894531 C 219.675781 302.730469 220.78125 303.59375 221.867188 304.480469 C 222.949219 305.371094 224.011719 306.289062 225.050781 307.230469 C 226.089844 308.171875 227.105469 309.136719 228.097656 310.128906 C 229.089844 311.121094 230.054688 312.136719 230.996094 313.175781 C 231.9375 314.214844 232.855469 315.277344 233.746094 316.359375 C 234.632812 317.445312 235.496094 318.550781 236.332031 319.675781 C 237.167969 320.800781 237.976562 321.949219 238.753906 323.113281 C 239.53125 324.28125 240.28125 325.464844 241.003906 326.667969 C 241.726562 327.871094 242.414062 329.089844 243.078125 330.328125 C 243.738281 331.5625 244.367188 332.816406 244.96875 334.082031 C 245.566406 335.351562 246.136719 336.632812 246.671875 337.929688 C 247.207031 339.222656 247.714844 340.53125 248.1875 341.851562 C 248.660156 343.171875 249.097656 344.503906 249.503906 345.847656 C 249.914062 347.1875 250.285156 348.539062 250.625 349.898438 C 250.96875 351.257812 251.273438 352.628906 251.546875 354.003906 C 251.820312 355.378906 252.0625 356.757812 252.265625 358.148438 C 252.472656 359.535156 252.644531 360.925781 252.78125 362.320312 C 252.917969 363.714844 253.023438 365.113281 253.089844 366.515625 C 253.160156 367.914062 253.195312 369.316406 253.195312 370.71875 Z M 253.195312 370.71875 "/><g clip-rule="nonzero" clip-path="url(#aaf432b232)"><path style=" stroke:none;fill-rule:nonzero;fill:#a6a6a6;fill-opacity:1;" d="M 405 422.132812 C 282.15625 422.132812 182.210938 522.078125 182.210938 644.917969 C 182.210938 654.378906 189.890625 662.058594 199.347656 662.058594 L 610.648438 662.058594 C 620.109375 662.058594 627.785156 654.378906 627.785156 644.917969 C 627.785156 522.078125 527.839844 422.132812 405 422.132812 Z M 405 422.132812 "/></g><g clip-rule="nonzero" clip-path="url(#5968d43625)"><path style=" stroke:none;fill-rule:nonzero;fill:#a6a6a6;fill-opacity:1;" d="M 197.050781 494.382812 C 186.5625 492.15625 175.90625 490.683594 165.074219 490.683594 C 80.039062 490.683594 10.835938 559.882812 10.835938 644.917969 C 10.835938 654.378906 18.515625 662.058594 27.972656 662.058594 L 151.089844 662.058594 C 149.171875 656.675781 147.9375 650.953125 147.9375 644.917969 C 147.9375 588.675781 166.308594 536.746094 197.050781 494.382812 Z M 197.050781 494.382812 "/></g><g clip-rule="nonzero" clip-path="url(#f977fbe209)"><path style=" stroke:none;fill-rule:nonzero;fill:#a6a6a6;fill-opacity:1;" d="M 644.921875 490.683594 C 634.09375 490.683594 623.433594 492.15625 612.945312 494.382812 C 643.691406 536.746094 662.0625 588.675781 662.0625 644.917969 C 662.0625 650.953125 660.828125 656.675781 658.90625 662.058594 L 782.023438 662.058594 C 791.484375 662.058594 799.160156 654.378906 799.160156 644.917969 C 799.160156 559.882812 729.960938 490.683594 644.921875 490.683594 Z M 644.921875 490.683594 "/></g></g></svg>